# Blender v2.79 (sub 0) OBJ File: 'untitled.blend'
# www.blender.org
mtllib untitled.mtl
o nodebox6
v 0.187500 0.250000 0.125000
v 0.187500 0.250000 0.187500
v 0.187500 0.437233 0.187500
v 0.187500 0.437233 0.125000
v 0.125000 0.250000 0.125000
v 0.125000 0.250000 0.187500
v 0.125000 0.437233 0.187500
v 0.125000 0.437233 0.125000
v -0.125000 0.250000 0.125000
v -0.125000 0.250000 0.187500
v -0.125000 0.437233 0.187500
v -0.125000 0.437233 0.125000
v -0.187500 0.250000 0.125000
v -0.187500 0.250000 0.187500
v -0.187500 0.437233 0.187500
v -0.187500 0.437233 0.125000
v 0.187500 0.437500 -0.187500
v 0.187500 0.437500 -0.125000
v 0.187500 0.500000 -0.125000
v 0.187500 0.500000 -0.187500
v -0.187500 0.437500 -0.187500
v -0.187500 0.437500 -0.125000
v -0.187500 0.500000 -0.125000
v -0.187500 0.500000 -0.187500
v 0.124938 0.437500 0.125000
v 0.124938 0.437500 0.187500
v 0.124938 0.500000 0.187500
v 0.124938 0.500000 0.125000
v -0.124938 0.437500 0.125000
v -0.124938 0.437500 0.187500
v -0.124938 0.500000 0.187500
v -0.124938 0.500000 0.125000
v 0.187500 0.250000 -0.187500
v 0.187500 0.250000 -0.125000
v 0.187500 0.437233 -0.125000
v 0.187500 0.437233 -0.187500
v 0.125000 0.250000 -0.187500
v 0.125000 0.250000 -0.125000
v 0.125000 0.437233 -0.125000
v 0.125000 0.437233 -0.187500
v 0.187500 0.437500 -0.125000
v 0.187500 0.437500 0.187500
v 0.187500 0.500000 0.187500
v 0.187500 0.500000 -0.125000
v 0.125000 0.437500 -0.125000
v 0.125000 0.437500 0.187500
v 0.125000 0.500000 0.187500
v 0.125000 0.500000 -0.125000
v -0.125000 0.250000 -0.187500
v -0.125000 0.250000 -0.125000
v -0.125000 0.437233 -0.125000
v -0.125000 0.437233 -0.187500
v -0.187500 0.250000 -0.187500
v -0.187500 0.250000 -0.125000
v -0.187500 0.437233 -0.125000
v -0.187500 0.437233 -0.187500
v 0.250000 -0.500000 -0.250000
v 0.250000 -0.500000 0.250000
v 0.250000 0.250000 0.250000
v 0.250000 0.250000 -0.250000
v -0.250000 -0.500000 -0.250000
v -0.250000 -0.500000 0.250000
v -0.250000 0.250000 0.250000
v -0.250000 0.250000 -0.250000
v -0.125000 0.437500 -0.125000
v -0.125000 0.437500 0.187500
v -0.125000 0.500000 0.187500
v -0.125000 0.500000 -0.125000
v -0.187500 0.437500 -0.125000
v -0.187500 0.437500 0.187500
v -0.187500 0.500000 0.187500
v -0.187500 0.500000 -0.125000
vt 0.318592 0.466559
vt 0.318592 0.547950
vt 0.440503 0.547950
vt 0.440503 0.466559
vt 0.318592 0.466559
vt 0.318592 0.547950
vt 0.440503 0.547950
vt 0.440503 0.466559
vt 0.277896 0.629340
vt 0.277896 0.873163
vt 0.237201 0.873163
vt 0.237201 0.629340
vt 0.277896 0.629340
vt 0.277896 0.873163
vt 0.237201 0.873163
vt 0.237201 0.629340
vt 0.000000 0.000000
vt 1.000000 0.000000
vt 1.000000 1.000000
vt 0.000000 1.000000
vt 0.277896 0.466559
vt 0.277896 0.547950
vt 0.237201 0.547950
vt 0.237201 0.466559
vt 0.318592 0.466559
vt 0.318592 0.547950
vt 0.440503 0.547950
vt 0.440503 0.466559
vt 0.318592 0.466559
vt 0.318592 0.547950
vt 0.440503 0.547950
vt 0.440503 0.466559
vt 0.074421 0.629340
vt 0.074421 0.873163
vt 0.033726 0.873163
vt 0.033726 0.629340
vt 0.074421 0.629340
vt 0.074421 0.873163
vt 0.033726 0.873163
vt 0.033726 0.629340
vt 0.000000 0.000000
vt 1.000000 0.000000
vt 1.000000 1.000000
vt 0.000000 1.000000
vt 0.074421 0.466559
vt 0.074421 0.547950
vt 0.033726 0.547950
vt 0.033726 0.466559
vt 0.440677 0.059608
vt 0.440677 0.140998
vt 0.481372 0.140998
vt 0.481372 0.059608
vt 0.440677 0.059608
vt 0.440677 0.140998
vt 0.481372 0.140998
vt 0.481372 0.059608
vt 0.277896 0.873511
vt 0.277896 0.954901
vt 0.033726 0.954901
vt 0.033726 0.873511
vt 0.277896 0.873511
vt 0.277896 0.954901
vt 0.033726 0.954901
vt 0.033726 0.873511
vt 0.277896 0.059608
vt 0.277896 0.140998
vt 0.033726 0.140998
vt 0.033726 0.059608
vt 0.277896 0.059608
vt 0.277896 0.140998
vt 0.033726 0.140998
vt 0.033726 0.059608
vt 0.440677 0.466559
vt 0.440677 0.547950
vt 0.481372 0.547950
vt 0.481372 0.466559
vt 0.440677 0.466559
vt 0.440677 0.547950
vt 0.481372 0.547950
vt 0.481372 0.466559
vt 0.237161 0.873511
vt 0.237161 0.954901
vt 0.074461 0.954901
vt 0.074461 0.873511
vt 0.237161 0.873511
vt 0.237161 0.954901
vt 0.074461 0.954901
vt 0.074461 0.873511
vt 0.237161 0.466559
vt 0.237161 0.547950
vt 0.074461 0.547950
vt 0.074461 0.466559
vt 0.237161 0.466559
vt 0.237161 0.547950
vt 0.074461 0.547950
vt 0.074461 0.466559
vt 0.318592 0.059608
vt 0.318592 0.140998
vt 0.440503 0.140998
vt 0.440503 0.059608
vt 0.318592 0.059608
vt 0.318592 0.140998
vt 0.440503 0.140998
vt 0.440503 0.059608
vt 0.277896 0.629340
vt 0.277896 0.873163
vt 0.237201 0.873163
vt 0.237201 0.629340
vt 0.277896 0.629340
vt 0.277896 0.873163
vt 0.237201 0.873163
vt 0.237201 0.629340
vt 0.277896 0.059608
vt 0.277896 0.140998
vt 0.237201 0.140998
vt 0.237201 0.059608
vt 0.277896 0.059608
vt 0.277896 0.140998
vt 0.237201 0.140998
vt 0.237201 0.059608
vt 0.440677 0.140998
vt 0.440677 0.547950
vt 0.481372 0.547950
vt 0.481372 0.140998
vt 0.440677 0.140998
vt 0.440677 0.547950
vt 0.481372 0.547950
vt 0.481372 0.140998
vt 0.277896 0.873511
vt 0.277896 0.954901
vt 0.237201 0.954901
vt 0.237201 0.873511
vt 0.277896 0.873511
vt 0.277896 0.954901
vt 0.237201 0.954901
vt 0.237201 0.873511
vt 0.277896 0.140998
vt 0.277896 0.547950
vt 0.237201 0.547950
vt 0.237201 0.140998
vt 0.277896 0.140998
vt 0.277896 0.547950
vt 0.237201 0.547950
vt 0.237201 0.140998
vt 0.318592 0.059608
vt 0.318592 0.140998
vt 0.440503 0.140998
vt 0.440503 0.059608
vt 0.318592 0.059608
vt 0.318592 0.140998
vt 0.440503 0.140998
vt 0.440503 0.059608
vt 0.074421 0.629340
vt 0.074421 0.873163
vt 0.033726 0.873163
vt 0.033726 0.629340
vt 0.074421 0.629340
vt 0.074421 0.873163
vt 0.033726 0.873163
vt 0.033726 0.629340
vt 0.000000 0.000000
vt 1.000000 0.000000
vt 1.000000 1.000000
vt 0.000000 1.000000
vt 0.074421 0.059608
vt 0.074421 0.140998
vt 0.033726 0.140998
vt 0.033726 0.059608
vt 1.000000 1.000000
vt 0.500000 1.000000
vt 0.500000 0.000000
vt 1.000000 0.000000
vt 1.000000 1.000000
vt 0.500000 1.000000
vt 0.500000 0.000000
vt 1.000000 0.000000
vt 1.000000 0.000000
vt 1.000000 1.000000
vt 0.500000 1.000000
vt 0.500000 0.000000
vt 1.000000 0.000000
vt 1.000000 1.000000
vt 0.500000 1.000000
vt 0.500000 0.000000
vt 0.500000 1.000000
vt 0.500000 0.000000
vt 1.000000 0.000000
vt 0.500000 1.000000
vt 1.000000 0.000000
vt 1.000000 1.000000
vt 0.440677 0.140998
vt 0.440677 0.547950
vt 0.481372 0.547950
vt 0.481372 0.140998
vt 0.440677 0.140998
vt 0.440677 0.547950
vt 0.481372 0.547950
vt 0.481372 0.140998
vt 0.074421 0.873511
vt 0.074421 0.954901
vt 0.033726 0.954901
vt 0.033726 0.873511
vt 0.074421 0.873511
vt 0.074421 0.954901
vt 0.033726 0.954901
vt 0.033726 0.873511
vt 0.074421 0.140998
vt 0.074421 0.547950
vt 0.033726 0.547950
vt 0.033726 0.140998
vt 0.074421 0.140998
vt 0.074421 0.547950
vt 0.033726 0.547950
vt 0.033726 0.140998
vn -1.0000 0.0000 0.0000
vn 0.0000 -0.0000 1.0000
vn 0.0000 -1.0000 -0.0000
usemtl Material.002
s off
f 1/1/1 2/2/1 3/3/1 4/4/1
f 5/5/1 6/6/1 7/7/1 8/8/1
f 1/9/2 4/10/2 8/11/2 5/12/2
f 2/13/2 3/14/2 7/15/2 6/16/2
f 1/17/3 2/18/3 6/19/3 5/20/3
f 4/21/3 3/22/3 7/23/3 8/24/3
f 9/25/1 10/26/1 11/27/1 12/28/1
f 13/29/1 14/30/1 15/31/1 16/32/1
f 9/33/2 12/34/2 16/35/2 13/36/2
f 10/37/2 11/38/2 15/39/2 14/40/2
f 9/41/3 10/42/3 14/43/3 13/44/3
f 12/45/3 11/46/3 15/47/3 16/48/3
f 17/49/1 18/50/1 19/51/1 20/52/1
f 21/53/1 22/54/1 23/55/1 24/56/1
f 17/57/2 20/58/2 24/59/2 21/60/2
f 18/61/2 19/62/2 23/63/2 22/64/2
f 17/65/3 18/66/3 22/67/3 21/68/3
f 20/69/3 19/70/3 23/71/3 24/72/3
f 25/73/1 26/74/1 27/75/1 28/76/1
f 29/77/1 30/78/1 31/79/1 32/80/1
f 25/81/2 28/82/2 32/83/2 29/84/2
f 26/85/2 27/86/2 31/87/2 30/88/2
f 25/89/3 26/90/3 30/91/3 29/92/3
f 28/93/3 27/94/3 31/95/3 32/96/3
f 33/97/1 34/98/1 35/99/1 36/100/1
f 37/101/1 38/102/1 39/103/1 40/104/1
f 33/105/2 36/106/2 40/107/2 37/108/2
f 34/109/2 35/110/2 39/111/2 38/112/2
f 33/113/3 34/114/3 38/115/3 37/116/3
f 36/117/3 35/118/3 39/119/3 40/120/3
f 41/121/1 42/122/1 43/123/1 44/124/1
f 45/125/1 46/126/1 47/127/1 48/128/1
f 41/129/2 44/130/2 48/131/2 45/132/2
f 42/133/2 43/134/2 47/135/2 46/136/2
f 41/137/3 42/138/3 46/139/3 45/140/3
f 44/141/3 43/142/3 47/143/3 48/144/3
f 49/145/1 50/146/1 51/147/1 52/148/1
f 53/149/1 54/150/1 55/151/1 56/152/1
f 49/153/2 52/154/2 56/155/2 53/156/2
f 50/157/2 51/158/2 55/159/2 54/160/2
f 49/161/3 50/162/3 54/163/3 53/164/3
f 52/165/3 51/166/3 55/167/3 56/168/3
f 57/169/1 58/170/1 59/171/1 60/172/1
f 61/173/1 62/174/1 63/175/1 64/176/1
f 57/177/2 60/178/2 64/179/2 61/180/2
f 58/181/2 59/182/2 63/183/2 62/184/2
f 57/185/3 58/186/3 62/187/3 61/173/3
f 60/188/3 59/171/3 63/189/3 64/190/3
f 65/191/1 66/192/1 67/193/1 68/194/1
f 69/195/1 70/196/1 71/197/1 72/198/1
f 65/199/2 68/200/2 72/201/2 69/202/2
f 66/203/2 67/204/2 71/205/2 70/206/2
f 65/207/3 66/208/3 70/209/3 69/210/3
f 68/211/3 67/212/3 71/213/3 72/214/3
