# Blender v2.76 (sub 0) OBJ File: 'untitled.blend'
# www.blender.org
mtllib untitled.mtl
o Mball
v 0.819662 -0.971536 -0.247108
v 0.819662 -0.987962 -0.280017
v 0.836017 -0.987962 -0.247108
v 0.819662 -1.525627 -0.532876
v 1.062410 -1.525627 -0.247108
v 1.041321 -1.346405 -0.247108
v 0.819662 -1.346405 -0.586344
v 0.935643 -1.167183 -0.247108
v 0.819662 -1.167183 -0.539633
v 1.105245 -1.346405 0.107258
v 0.995940 -1.167183 0.107258
v 0.983436 -1.346405 0.461624
v 0.937719 -1.167183 0.461624
v 0.884100 -0.987962 0.461624
v 0.937278 -0.987962 0.107258
v 0.819662 -0.893265 0.461624
v 0.819662 -0.838771 0.107258
v 0.991829 -1.525627 0.461624
v 1.151445 -1.525627 0.107258
v 0.819662 -1.639534 0.461624
v 0.819662 -1.703966 0.107258
v 0.819662 -1.670256 -0.247108
v 0.705306 -1.704849 -0.247108
v 0.816711 -1.704849 0.107258
v 0.462230 -1.649231 -0.601474
v 0.462230 -1.704849 -0.464490
v 0.735290 -1.525627 -0.601474
v 0.119913 -1.704849 -0.601474
v 0.104799 -1.704849 -0.605526
v 0.462230 -1.525627 -0.781944
v 0.104799 -1.525627 -0.922633
v 0.104799 -1.706356 -0.601474
v -0.206550 -1.704849 -0.601474
v -0.252633 -1.787503 -0.247108
v 0.104799 -1.792581 -0.247108
v -0.252633 -1.704849 -0.592328
v -0.252633 -1.701434 -0.601474
v -0.610065 -1.625461 -0.601474
v -0.610065 -1.704849 -0.382254
v -0.252633 -1.803227 0.107258
v 0.104799 -1.812755 0.107258
v -0.252633 -1.752858 0.461624
v 0.104799 -1.768266 0.461624
v -0.252633 -1.704849 0.611946
v 0.104799 -1.704849 0.650196
v -0.252633 -1.581732 0.815990
v 0.104799 -1.604938 0.815990
v -0.252633 -1.525627 0.868215
v 0.104799 -1.525627 0.891100
v -0.252633 -1.346405 0.926623
v 0.104799 -1.346405 0.962244
v -0.252633 -1.167183 0.920846
v 0.104799 -1.167183 0.975686
v -0.252633 -0.999345 0.815990
v -0.230749 -0.987962 0.815990
v 0.104799 -0.987962 0.907538
v 0.104799 -0.868561 0.815990
v 0.462230 -0.909033 0.815990
v 0.462230 -0.987962 0.869118
v 0.104799 -0.808740 0.754021
v 0.462230 -0.808740 0.722941
v 0.571631 -0.987962 0.815990
v -0.252633 -0.987962 0.806651
v -0.610065 -1.167183 0.781252
v -0.610065 -0.987962 0.617439
v -0.547689 -1.167183 0.815990
v -0.610065 -0.909158 0.461624
v -0.331590 -0.808740 0.461624
v -0.252633 -0.808740 0.548001
v -0.252633 -0.774702 0.461624
v -0.547702 -0.808740 0.107258
v -0.252633 -0.723920 0.107258
v 0.078828 -0.629518 0.107258
v 0.104799 -0.629518 0.355437
v 0.104799 -0.651934 0.461624
v 0.104799 -0.624245 0.107258
v 0.104799 -0.629518 0.074977
v 0.421718 -0.629518 0.107258
v 0.104799 -0.713785 -0.247108
v 0.462230 -0.750655 -0.247108
v 0.462230 -0.637172 0.107258
v -0.252633 -0.755636 -0.247108
v -0.252633 -0.808740 -0.539633
v 0.104799 -0.808740 -0.541597
v -0.547689 -0.808740 -0.247108
v 0.462230 -0.662003 0.461624
v 0.788916 -0.808740 0.107258
v 0.738571 -0.808740 0.461624
v -0.767228 -0.987962 0.461624
v -0.932458 -0.987962 0.107258
v -0.610065 -0.826309 0.107258
v -0.967497 -1.019238 0.107258
v -0.932458 -1.167183 0.461624
v -0.967497 -1.167183 0.399783
v -0.967497 -1.292251 0.461624
v -0.610065 -1.346405 0.799395
v -0.967497 -1.346405 0.488315
v -0.967497 -1.514663 0.461624
v -0.610065 -1.525627 0.746957
v -0.960692 -1.525627 0.461624
v -0.967497 -1.525627 0.452006
v -0.967497 -1.635491 0.107258
v -0.610065 -1.695374 0.461624
v -0.610065 -1.704849 0.426511
v -0.794127 -1.704849 0.107258
v -0.610065 -1.752853 0.107258
v -0.610065 -1.733987 -0.247108
v -0.716723 -1.704849 -0.247108
v -0.967497 -1.596835 -0.247108
v -1.051750 -1.525627 -0.247108
v -1.111088 -1.525627 0.107258
v -0.967497 -1.525627 -0.401659
v -0.967497 -1.346405 -0.544476
v -1.097285 -1.346405 -0.247108
v -0.967497 -1.167183 -0.539633
v -1.070356 -1.167183 -0.247108
v -1.126631 -1.346405 0.107258
v -1.070356 -1.167183 0.107258
v -0.967497 -1.019238 -0.247108
v -0.933064 -1.346405 -0.601474
v -0.932458 -1.167183 -0.601474
v -0.767228 -0.987962 -0.601474
v -0.932458 -0.987962 -0.247108
v -0.610065 -0.826309 -0.247108
v -0.610065 -0.909158 -0.601474
v -0.610065 -0.987962 -0.757289
v -0.610065 -1.346405 -0.921101
v -0.610065 -1.167183 -0.921101
v -0.547689 -1.346405 -0.955839
v -0.547689 -1.167183 -0.955839
v -0.252633 -1.346405 -1.057817
v -0.252633 -1.167183 -1.057817
v -0.252633 -1.019238 -0.955839
v 0.104799 -1.167183 -1.057817
v 0.104799 -1.019238 -0.955839
v 0.104799 -0.987962 -0.921101
v -0.252633 -0.987962 -0.921101
v -0.252633 -0.826309 -0.601474
v 0.104799 -0.826309 -0.601474
v -0.252633 -1.494351 -0.955839
v 0.104799 -1.494351 -0.955839
v 0.104799 -1.346405 -1.057817
v -0.252633 -1.525627 -0.921680
v 0.399855 -1.346405 -0.955839
v 0.399855 -1.167183 -0.955839
v 0.462230 -1.346405 -0.921101
v 0.462230 -1.167183 -0.921101
v 0.806257 -1.346405 -0.601474
v 0.784623 -1.167183 -0.601474
v -0.803011 -1.525627 -0.601474
v -0.568206 -1.704849 0.461624
v -0.987193 -1.346405 0.461624
v 0.462230 -1.167183 0.922481
v 0.462230 -1.346405 0.898258
v 0.660663 -1.167183 0.815990
v 0.630979 -1.346405 0.815990
v 0.462230 -1.525627 0.830570
v 0.496153 -1.525627 0.815990
v -0.575348 -1.346405 0.815990
v -0.442810 -1.525627 0.815990
v 0.462230 -1.541405 0.815990
v 0.462230 -1.739370 0.461624
v 0.462230 -1.783768 0.107258
v 0.621627 -1.704849 0.461624
v 0.819662 -1.525627 0.630664
v 0.462230 -1.704849 0.569221
v 0.819662 -1.346405 0.669766
v 0.819662 -1.167183 0.663684
v 0.605344 -0.808740 -0.247108
v 0.819662 -0.987962 0.582052
v 0.462230 -0.808740 -0.371749
v 0.462230 -0.909133 -0.601474
v -0.610065 -1.525627 -0.764725
v 0.619397 -0.987962 -0.601474
v 0.462230 -1.756947 -0.247108
v 0.462230 -0.987962 -0.757289
vn 0.797100 0.537600 -0.274800
vn 0.660300 0.671100 -0.337200
vn 0.626800 0.718500 -0.301500
vn 0.796500 0.024900 -0.604100
vn 0.899500 0.246600 -0.360500
vn 0.827600 -0.425800 -0.365700
vn 0.623200 -0.506700 -0.595600
vn 0.793300 0.409500 -0.450500
vn 0.860700 0.417700 -0.291000
vn 0.913300 0.407300 0.007200
vn 0.949000 0.309000 0.062400
vn 0.894800 0.260600 0.362500
vn 0.872000 0.154100 0.464600
vn 0.876500 0.479400 -0.042500
vn 0.861700 0.416500 0.289800
vn 0.722400 0.686700 -0.081200
vn 0.707500 0.631600 0.317000
vn 0.918600 -0.388800 0.070300
vn 0.776200 -0.421000 0.469200
vn 0.397000 -0.916900 0.041400
vn 0.400900 -0.848100 0.346300
vn 0.397800 -0.884100 -0.245000
vn 0.269000 -0.962500 0.035200
vn 0.260500 -0.945000 -0.197800
vn 0.192900 -0.934100 -0.300400
vn 0.241200 -0.852400 -0.463900
vn 0.509200 -0.597200 -0.619600
vn 0.118000 -0.908400 -0.401100
vn 0.367200 -0.662700 -0.652700
vn 0.062800 -0.896900 -0.437700
vn 0.129100 -0.771200 -0.623300
vn 0.043900 -0.955600 -0.291200
vn -0.021200 -0.928500 -0.370600
vn 0.038800 -0.988500 -0.146100
vn -0.078900 -0.987100 -0.139300
vn -0.116600 -0.949400 -0.291600
vn -0.117600 -0.901700 -0.416100
vn -0.256300 -0.926400 -0.275800
vn -0.302100 -0.860300 -0.410400
vn 0.028800 -0.999000 0.035100
vn -0.084400 -0.995500 0.043400
vn 0.020600 -0.975000 0.221000
vn -0.089500 -0.970600 0.223200
vn 0.030800 -0.900800 0.433100
vn -0.122600 -0.899300 0.419700
vn 0.039200 -0.777400 0.627800
vn -0.133400 -0.774000 0.618900
vn 0.040800 -0.521700 0.852200
vn -0.157600 -0.495300 0.854300
vn 0.029700 -0.206200 0.978000
vn -0.207600 -0.146500 0.967200
vn -0.013100 0.153500 0.988000
vn -0.224100 0.270100 0.936400
vn -0.065100 0.467100 0.881800
vn -0.262900 0.569900 0.778500
vn -0.287100 0.547800 0.785800
vn -0.096000 0.683300 0.723700
vn 0.259200 0.421200 0.869100
vn 0.283700 0.629600 0.723200
vn 0.294300 0.743500 0.600500
vn -0.119200 0.808800 0.575800
vn 0.514800 0.462700 0.721700
vn -0.324000 0.703600 0.632400
vn -0.414200 0.723300 0.552400
vn -0.539700 0.360800 0.760600
vn -0.392600 0.353000 0.849200
vn -0.317000 0.824000 0.469500
vn -0.333500 0.887800 0.317100
vn -0.367000 0.871100 0.326200
vn -0.315700 0.911000 0.265200
vn -0.261600 0.965100 0.009100
vn -0.283100 0.955300 0.084700
vn -0.095700 0.984400 0.147500
vn -0.256200 0.964100 -0.070100
vn -0.116600 0.941200 0.317000
vn -0.090900 0.993400 -0.069600
vn -0.096200 0.976000 -0.195300
vn 0.112200 0.991700 -0.061900
vn 0.277100 0.956500 -0.090500
vn 0.255000 0.910700 -0.325000
vn -0.013700 0.965300 -0.260800
vn -0.163200 0.973800 -0.158000
vn 0.070900 0.947400 -0.312200
vn -0.122000 0.963100 -0.239700
vn -0.246000 0.960200 -0.132100
vn 0.241500 0.932200 0.269400
vn 0.580600 0.745800 0.326600
vn 0.578500 0.809900 -0.096600
vn -0.551800 0.730500 0.402300
vn -0.371200 0.922800 0.102800
vn -0.586600 0.797200 0.142300
vn -0.731600 0.407100 0.546800
vn -0.746100 0.647200 0.155800
vn -0.813500 0.442400 0.377300
vn -0.802200 0.245600 0.544100
vn -0.544800 -0.058400 0.836500
vn -0.718100 0.094500 0.689400
vn -0.437300 -0.543500 0.716500
vn -0.785600 -0.224300 0.576500
vn -0.560900 -0.643000 0.521400
vn -0.730300 -0.565100 0.383700
vn -0.306900 -0.876800 0.370100
vn -0.501500 -0.861700 0.077200
vn -0.331700 -0.941600 0.058100
vn -0.257000 -0.947100 0.192300
vn -0.198500 -0.979000 0.046800
vn -0.330600 -0.927400 -0.174900
vn -0.199400 -0.970900 -0.132900
vn -0.508500 -0.833600 -0.215800
vn -0.875400 -0.470800 0.109500
vn -0.825700 -0.505300 -0.250600
vn -0.682500 -0.590800 -0.430200
vn -0.970600 -0.033400 -0.238100
vn -0.853700 -0.188800 -0.485300
vn -0.916000 0.360500 -0.175900
vn -0.846400 0.348400 -0.402700
vn -0.900500 0.408000 0.150500
vn -0.987600 0.061900 0.144000
vn -0.738300 0.657500 -0.150400
vn -0.766900 0.319700 -0.556400
vn -0.750600 -0.240800 -0.615300
vn -0.550700 0.730700 -0.403300
vn -0.568600 0.812000 -0.131500
vn -0.320900 0.890100 -0.323600
vn -0.351500 0.929300 -0.113200
vn -0.397600 0.727900 -0.558500
vn -0.548100 0.322600 -0.771700
vn -0.560500 -0.290500 -0.775500
vn -0.399900 0.353300 -0.845800
vn -0.391700 -0.321100 -0.862200
vn -0.154900 0.286000 -0.945600
vn -0.154900 -0.286000 -0.945600
vn -0.161300 0.660000 -0.733800
vn 0.148500 0.654600 -0.741200
vn 0.154900 0.286000 -0.945600
vn -0.145000 0.803300 -0.577600
vn 0.129900 0.810100 -0.571700
vn 0.098800 0.916700 -0.387200
vn -0.108300 0.930100 -0.351100
vn -0.150000 -0.639800 -0.753700
vn 0.154900 -0.286000 -0.945600
vn 0.147900 -0.627200 -0.764600
vn -0.135900 -0.782300 -0.607900
vn 0.399900 -0.353300 -0.845800
vn 0.388600 0.327300 -0.861300
vn 0.542400 0.326700 -0.774000
vn 0.535700 -0.270200 -0.800000
vn 0.738100 0.340400 -0.582400
vn 0.711000 -0.111600 -0.694200
vn -0.547600 -0.658600 -0.516100
vn -0.192500 -0.926100 0.324500
vn -0.874900 0.093000 0.475100
vn 0.299500 -0.220300 0.928300
vn 0.298900 0.091900 0.949800
vn 0.520700 -0.183300 0.833800
vn 0.582100 0.112100 0.805400
vn 0.395200 -0.549000 0.736400
vn 0.254300 -0.506900 0.823600
vn -0.382900 -0.102500 0.918100
vn -0.289900 -0.565200 0.772300
vn 0.217100 -0.751800 0.622600
vn 0.149800 -0.988300 0.026900
vn 0.142900 -0.966200 0.214700
vn 0.268600 -0.913400 0.305800
vn 0.550200 -0.486000 0.678900
vn 0.184900 -0.884200 0.428900
vn 0.746700 0.163400 0.644800
vn 0.693300 -0.073600 0.716800
vn 0.474300 0.812700 -0.338400
vn 0.697300 0.460100 0.549500
vn 0.306100 0.869900 -0.386700
vn 0.324100 0.857600 -0.399300
vn -0.397100 -0.700300 -0.593200
vn 0.546300 0.710300 -0.443900
vn 0.151000 -0.977100 -0.150000
vn 0.399400 0.729900 -0.554700
usemtl None
s 1
f 3//1 2//2 1//3
f 7//4 6//5 5//6 4//7
f 9//8 8//9 6//5 7//4
f 6//5 8//9 11//10 10//11
f 10//11 11//10 13//12 12//13
f 11//10 15//14 14//15 13//12
f 14//15 15//14 17//16 16//17
f 19//18 10//11 12//13 18//19
f 21//20 19//18 18//19 20//21
f 22//22 5//6 19//18 21//20
f 24//23 23//24 22//22 21//20
f 22//22 23//24 26//25 25//26
f 27//27 4//7 22//22 25//26
f 26//25 28//28 25//26
f 30//29 25//26 28//28 29//30
f 31//31 30//29 29//30
f 29//30 28//28 32//32
f 33//33 29//30 32//32
f 33//33 32//32 35//34 34//35
f 36//36 33//33 34//35
f 33//33 36//36 37//37
f 37//37 36//36 39//38 38//39
f 34//35 35//34 41//40 40//41
f 40//41 41//40 43//42 42//43
f 43//42 45//44 44//45 42//43
f 44//45 45//44 47//46 46//47
f 47//46 49//48 48//49 46//47
f 49//48 51//50 50//51 48//49
f 51//50 53//52 52//53 50//51
f 53//52 56//54 55//55 54//56
f 52//53 53//52 54//56
f 55//55 56//54 57//57
f 56//54 59//58 58//59 57//57
f 58//59 61//60 60//61 57//57
f 59//58 62//62 58//59
f 55//55 63//63 54//56
f 54//56 63//63 65//64 64//65
f 66//66 54//56 64//65
f 63//63 69//67 68//68 67//69
f 65//64 63//63 67//69
f 68//68 69//67 70//70
f 72//71 71//72 68//68 70//70
f 74//73 73//74 72//71 70//70
f 75//75 74//73 70//70
f 73//74 74//73 76//76
f 77//77 73//74 76//76
f 78//78 77//77 76//76
f 78//78 81//79 80//80 79//81
f 77//77 78//78 79//81
f 74//73 78//78 76//76
f 77//77 79//81 82//82 72//71
f 73//74 77//77 72//71
f 79//81 84//83 83//84 82//82
f 83//84 85//85 82//82
f 81//79 78//78 74//73 75//75
f 86//86 81//79 75//75
f 88//87 87//88 81//79 86//86
f 61//60 88//87 86//86
f 69//67 60//61 75//75 70//70
f 89//89 65//64 67//69
f 91//90 90//91 89//89 67//69
f 93//92 89//89 90//91 92//93
f 94//94 93//92 92//93
f 93//92 94//94 95//95
f 96//96 64//65 93//92 95//95
f 97//97 96//96 95//95
f 99//98 96//96 97//97 98//99
f 100//100 99//98 98//99
f 101//101 100//100 98//99
f 103//102 100//100 101//101 102//103
f 105//104 104//105 103//102 102//103
f 104//105 105//104 106//106
f 105//104 108//107 107//108 106//106
f 108//107 39//38 107//108
f 109//109 108//107 105//104 102//103
f 111//110 110//111 109//109 102//103
f 110//111 112//112 109//109
f 110//111 114//113 113//114 112//112
f 114//113 116//115 115//116 113//114
f 118//117 116//115 114//113 117//118
f 119//119 116//115 118//117 92//93
f 115//116 121//120 120//121 113//114
f 122//122 121//120 115//116 119//119
f 123//123 122//122 119//119
f 125//124 122//122 123//123 124//125
f 126//126 122//122 125//124
f 120//121 121//120 128//127 127//128
f 128//127 130//129 129//130 127//128
f 129//130 130//129 132//131 131//132
f 132//131 130//129 133//133
f 135//134 134//135 132//131 133//133
f 137//136 136//137 135//134 133//133
f 139//138 136//137 137//136 138//139
f 129//130 131//132 140//140
f 131//132 142//141 141//142 140//140
f 141//142 31//31 143//143 140//140
f 142//141 144//144 141//142
f 134//135 145//145 144//144 142//141
f 144//144 145//145 147//146 146//147
f 147//146 149//148 148//149 146//147
f 132//131 134//135 142//141 131//132
f 113//114 120//121 150//150 112//112
f 104//105 151//151 103//102
f 101//101 111//110 102//103
f 117//118 111//110 101//101 98//99
f 152//152 117//118 98//99
f 97//97 152//152 98//99
f 152//152 97//97 95//95
f 118//117 117//118 152//152 95//95
f 94//94 118//117 95//95
f 118//117 94//94 92//93
f 124//125 123//123 90//91 91//90
f 71//72 85//85 124//125 91//90
f 154//153 153//154 53//52 51//50
f 156//155 155//156 153//154 154//153
f 158//157 156//155 154//153 157//158
f 52//53 66//66 159//159 50//51
f 50//51 159//159 160//160 48//49
f 161//161 157//158 49//48 47//46
f 46//47 160//160 99//98 103//102
f 151//151 44//45 46//47 103//102
f 41//40 163//162 162//163 43//42
f 163//162 24//23 164//164 162//163
f 42//43 151//151 104//105 106//106
f 40//41 42//43 106//106
f 31//31 29//30 33//33 37//37
f 143//143 31//31 37//37
f 164//164 24//23 21//20 20//21
f 20//21 165//165 158//157 161//161
f 166//166 164//164 20//21 161//161
f 12//13 13//12 168//167 167//168
f 15//14 3//1 1//3 17//16
f 1//3 169//169 87//88 17//16
f 170//170 14//15 16//17
f 18//19 12//13 167//168 165//165
f 30//29 27//27 25//26
f 87//88 169//169 80//80 81//79
f 169//169 171//171 80//80
f 16//17 88//87 61//60 58//59
f 62//62 170//170 16//17 58//59
f 170//170 62//62 155//156 168//167
f 155//156 62//62 59//58 153//154
f 158//157 157//158 161//161
f 83//84 84//83 139//138 138//139
f 84//83 171//171 172//172 139//138
f 173//173 143//143 37//37 38//39
f 150//150 173//173 38//39
f 82//82 85//85 71//72 72//71
f 57//57 60//61 69//67 63//63
f 55//55 57//57 63//63
f 66//66 52//53 54//56
f 48//49 160//160 46//47
f 148//149 149//148 9//8 7//4
f 149//148 174//174 2//2 9//8
f 27//27 148//149 7//4 4//7
f 26//25 23//24 175//175
f 8//9 3//1 15//14 11//10
f 5//6 6//5 10//11 19//18
f 175//175 23//24 24//23 163//162
f 168//167 155//156 156//155 167//168
f 167//168 156//155 158//157 165//165
f 164//164 166//166 162//163
f 176//176 147//146 145//145 135//134
f 136//137 176//176 135//134
f 35//34 175//175 163//162 41//40
f 157//158 154//153 51//50 49//48
f 162//163 166//166 45//44 43//42
f 121//120 122//122 126//126 128//127
f 150//150 120//121 127//128 173//173
f 39//38 36//36 34//35 107//108
f 90//91 123//123 119//119 92//93
f 117//118 114//113 110//111 111//110
f 107//108 34//35 40//41 106//106
f 159//159 66//66 64//65 96//96
f 160//160 159//159 96//96 99//98
f 44//45 151//151 42//43
f 174//174 176//176 172//172
f 176//176 174//174 149//148 147//146
f 146//147 148//149 27//27 30//29
f 1//3 2//2 174//174 172//172
f 171//171 169//169 1//3 172//172
f 2//2 3//1 8//9 9//8
f 4//7 5//6 22//22
f 17//16 87//88 88//87 16//17
f 13//12 14//15 170//170 168//167
f 18//19 165//165 20//21
f 172//172 176//176 136//137 139//138
f 145//145 134//135 135//134
f 146//147 30//29 31//31 141//142
f 144//144 146//147 141//142
f 80//80 171//171 84//83 79//81
f 28//28 26//25 175//175 35//34
f 32//32 28//28 35//34
f 60//61 61//60 86//86 75//75
f 153//154 59//58 56//54 53//52
f 45//44 166//166 161//161 47//46
f 138//139 137//136 126//126 125//124
f 137//136 133//133 130//129 128//127
f 126//126 137//136 128//127
f 129//130 140//140 143//143 173//173
f 127//128 129//130 173//173
f 83//84 138//139 125//124 124//125
f 85//85 83//84 124//125
f 115//116 116//115 119//119
f 38//39 39//38 108//107 109//109
f 112//112 150//150 38//39 109//109
f 68//68 71//72 91//90 67//69
f 65//64 89//89 93//92 64//65
f 99//98 100//100 103//102
