# Blender 4.0.1
# www.blender.org
mtllib default_trashbag1.mtl
o Plane
v -0.450000 -0.868931 0.450000
v 0.450000 -0.868931 0.450000
v -0.450000 -0.868931 -0.450000
v 0.450000 -0.868931 -0.450000
v -0.450000 -0.368679 0.450000
v 0.450000 -0.368679 0.450000
v -0.450000 -0.368679 -0.450000
v 0.450000 -0.368679 -0.450000
v -0.400000 -0.368679 0.400000
v 0.400000 -0.368679 0.400000
v -0.400000 -0.368679 -0.400000
v 0.400000 -0.368679 -0.400000
v 0.400000 -0.201560 -0.400000
v -0.400000 -0.201560 -0.400000
v 0.400000 -0.201560 0.400000
v -0.400000 -0.201560 0.400000
v 0.280000 -0.201560 -0.280000
v -0.280000 -0.201560 -0.280000
v 0.280000 -0.201560 0.280000
v -0.280000 -0.201560 0.280000
v 0.280000 -0.054573 -0.280000
v -0.280000 -0.054573 -0.280000
v 0.280000 -0.054573 0.280000
v -0.280000 -0.054573 0.280000
v 0.168000 -0.054573 -0.168000
v -0.168000 -0.054573 -0.168000
v 0.168000 -0.054573 0.168000
v -0.168000 -0.054573 0.168000
v 0.168000 0.066687 -0.168000
v -0.168000 0.066687 -0.168000
v 0.168000 0.066687 0.168000
v -0.168000 0.066687 0.168000
v -0.400000 -0.868931 -0.400000
v 0.400000 -0.868931 -0.400000
v -0.400000 -0.868931 0.400000
v 0.400000 -0.868931 0.400000
v 0.400000 -0.930663 0.400000
v -0.400000 -0.930663 0.400000
v 0.400000 -0.930663 -0.400000
v -0.400000 -0.930663 -0.400000
v 0.280000 -0.930663 0.280000
v -0.280000 -0.930663 0.280000
v 0.280000 -0.930663 -0.280000
v -0.280000 -0.930663 -0.280000
v 0.280000 -0.967833 0.280000
v -0.280000 -0.967833 0.280000
v 0.280000 -0.967832 -0.280000
v -0.280000 -0.967832 -0.280000
v 0.050400 0.066687 -0.050400
v -0.050400 0.066687 -0.050400
v 0.050400 0.066687 0.050400
v -0.050400 0.066687 0.050400
v 0.050400 0.103828 -0.050400
v -0.050400 0.103828 -0.050400
v 0.050400 0.103828 0.050400
v -0.050400 0.103828 0.050400
v 0.073707 0.129740 -0.073707
v -0.073707 0.129740 -0.073707
v 0.073707 0.129740 0.073707
v -0.073707 0.129740 0.073707
v 0.073707 0.151490 -0.073707
v -0.073707 0.151490 -0.073707
v 0.073707 0.151490 0.073707
v -0.073707 0.151490 0.073707
v 0.086450 0.189035 -0.086450
v -0.086450 0.189035 -0.086450
v 0.086450 0.189035 0.086450
v -0.086450 0.189035 0.086450
v 0.086450 0.203953 -0.086450
v -0.086450 0.203953 -0.086450
v 0.086450 0.203953 0.086450
v -0.086450 0.203953 0.086450
vn -0.0000 1.0000 -0.0000
vn 1.0000 -0.0000 -0.0000
vn -1.0000 -0.0000 -0.0000
vn -0.0000 -0.0000 -1.0000
vn -0.0000 -0.0000 1.0000
vn -0.0000 -1.0000 -0.0000
vn -0.7435 -0.6687 -0.0000
vn 0.7435 -0.6687 -0.0000
vn -0.0000 -0.6687 0.7435
vn -0.0000 -0.6687 -0.7435
vn -0.0000 -0.3214 0.9469
vn -0.0000 -0.3214 -0.9469
vn -0.9469 -0.3214 -0.0000
vn 0.9469 -0.3214 -0.0000
vt 0.348585 0.026321
vt 0.026228 0.026111
vt 0.000189 0.001721
vt 0.373086 0.000189
vt 0.998999 0.501001
vt 0.501001 0.501001
vt 0.501001 0.998999
vt 0.998999 0.998999
vt 0.498999 0.001001
vt 0.001001 0.001001
vt 0.001001 0.498999
vt 0.498999 0.498999
vt 0.498999 0.501001
vt 0.001001 0.501001
vt 0.001001 0.998999
vt 0.498999 0.998999
vt 0.998999 0.001001
vt 0.501001 0.001001
vt 0.501001 0.498999
vt 0.998999 0.498999
vt 0.208898 -0.000000
vt 0.208898 1.000000
vt 0.000000 1.000000
vt 0.000000 -0.000000
vt 0.024691 0.349202
vt 0.347048 0.349413
vt 0.373086 0.373802
vt 0.000189 0.375334
vt 0.417797 -0.000000
vt 0.417797 1.000000
vt 0.626695 -0.000000
vt 0.626695 1.000000
vt 0.417797 1.000000
vt 0.417797 -0.000000
vt 0.835593 0.000000
vt 0.835593 1.000000
vt 0.626695 1.000000
vt 0.626695 0.000000
vt 1.000000 0.000000
vt 1.000000 1.000000
vt 0.850000 0.850000
vt 0.850000 0.150000
vt 0.150000 0.150000
vt 0.000000 1.000000
vt 0.150000 0.850000
vt 0.250000 -0.000000
vt 0.250000 0.952467
vt 0.000000 0.952467
vt 0.500000 -0.000000
vt 0.500000 0.952467
vt 0.750000 0.000000
vt 0.750000 0.952467
vt 0.500000 0.952467
vt 0.500000 0.000000
vt 1.000000 0.000000
vt 1.000000 0.952467
vt 0.119764 0.863011
vt 0.119764 0.129715
vt 0.266423 0.276374
vt 0.266423 0.716352
vt 0.853060 0.129715
vt 0.853060 0.863011
vt 0.706400 0.716352
vt 0.706400 0.276374
vt 0.750000 0.965873
vt 0.750000 0.273147
vt 1.000000 0.273147
vt 1.000000 0.965873
vt 0.500000 0.965873
vt 0.500000 0.273147
vt 0.750000 0.273147
vt 0.750000 0.965873
vt 0.250000 0.965873
vt 0.250000 0.273147
vt 0.500000 0.273147
vt 0.500000 0.965873
vt 0.000000 0.965873
vt -0.000000 0.273147
vt 0.250000 0.273147
vt 0.250000 0.965873
vt 0.285074 0.702788
vt 0.285074 0.292348
vt 0.428728 0.436002
vt 0.428728 0.559134
vt 0.000000 1.000000
vt 0.000000 -0.000000
vt 0.077165 -0.000000
vt 0.077165 1.000000
vt 0.231495 1.000000
vt 0.231495 -0.000000
vt 0.308660 -0.000000
vt 0.308660 1.000000
vt 0.154330 1.000000
vt 0.154330 -0.000000
vt 0.231495 1.000000
vt 0.077165 1.000000
vt 0.077165 -0.000000
vt 0.154330 -0.000000
vt 0.154330 1.000000
vt 0.998999 0.398999
vt 0.751001 0.001001
vt 0.751001 0.398999
vt 0.001001 0.598999
vt 0.498999 0.598999
vt 0.498999 0.401001
vt 0.001001 0.401001
vt 0.748999 0.398999
vt 0.748999 0.001001
vt 0.501001 0.398999
vt 0.001001 0.798999
vt 0.498999 0.798999
vt 0.498999 0.601001
vt 0.001001 0.601001
vt 0.401583 0.700000
vt 0.401583 -0.000000
vt 0.448044 -0.000000
vt 0.448045 0.700000
vt 0.448045 0.700000
vt 0.448045 -0.000000
vt 0.494506 -0.000000
vt 0.494506 0.700000
vt 0.308660 0.700000
vt 0.308660 -0.000000
vt 0.355121 -0.000000
vt 0.355121 0.700000
vt 0.401583 -0.000000
vt 0.401583 0.700000
vt 0.355121 0.700000
vt 0.355121 -0.000000
vt 0.001001 0.398999
vt 0.498999 0.398999
vt 0.748999 0.401001
vt 0.501001 0.401001
vt 0.501001 0.798999
vt 0.748999 0.798999
vt 0.498999 0.801001
vt 0.001001 0.801001
vt 0.998999 0.401001
vt 0.751001 0.401001
vt 0.751001 0.798999
vt 0.998999 0.798999
vt 0.998999 0.801001
vt 0.501001 0.801001
vt 0.401782 0.600778
vt 0.401782 0.890601
vt 0.295346 0.890601
vt 0.295346 0.600778
vt 0.695514 0.292348
vt 0.695514 0.702788
vt 0.551860 0.559134
vt 0.551860 0.436002
vt 0.215649 0.957613
vt 0.215649 0.533767
vt 0.492510 0.187700
vt 0.484176 0.186471
vt 0.486519 0.184705
vt 0.490781 0.185425
vt 0.493775 0.179568
vt 0.491551 0.181233
vt 0.904696 0.103652
vt 0.904696 0.393475
vt 0.800210 0.393475
vt 0.800210 0.103652
vt 0.918671 0.533767
vt 0.918671 0.957613
vt 0.856501 0.957613
vt 0.856501 0.533767
vt 1.000000 0.600778
vt 1.000000 0.890601
vt 0.702576 0.600778
vt 0.702576 0.890601
vt 0.604421 0.957613
vt 0.604421 0.533767
vt 0.713473 0.460486
vt 0.713473 0.036640
vt 0.550458 0.533767
vt 0.550458 0.957613
vt 0.438793 0.994253
vt 0.438793 0.497126
vt 0.652283 0.460486
vt 0.652283 0.036640
vt 0.153317 0.957613
vt 0.153317 0.533767
vt 0.401782 0.994253
vt 0.401782 0.497126
vt 0.539094 0.497126
vt 0.539094 -0.000000
vt 0.042751 0.994253
vt 0.042751 0.497127
vt 0.745216 0.994253
vt 0.745216 0.497126
vt 0.821113 0.939231
vt 0.409327 0.939231
vt 0.409327 0.527444
vt 0.821113 0.527444
vt 0.497127 0.497126
vt 0.497127 -0.000000
vt 0.000000 0.994253
vt 0.000000 0.497127
vt 0.702577 0.994253
vt 0.702576 0.497126
s 0
usemtl Material.001
f 6/1/1 8/2/1 12/3/1 10/4/1
f 2/5/2 4/6/2 8/7/2 6/8/2
f 3/9/3 1/10/3 5/11/3 7/12/3
f 4/13/4 3/14/4 7/15/4 8/16/4
f 1/17/5 2/18/5 6/19/5 5/20/5
f 12/21/4 11/22/4 14/23/4 13/24/4
f 7/25/1 5/26/1 9/27/1 11/28/1
f 8/2/1 7/25/1 11/28/1 12/3/1
f 5/26/1 6/1/1 10/4/1 9/27/1
f 9/29/5 10/30/5 15/22/5 16/21/5
f 10/31/2 12/32/2 13/33/2 15/34/2
f 11/35/3 9/36/3 16/37/3 14/38/3
f 15/39/1 13/40/1 17/41/1 19/42/1
f 16/24/1 15/39/1 19/42/1 20/43/1
f 13/40/1 14/44/1 18/45/1 17/41/1
f 14/44/1 16/24/1 20/43/1 18/45/1
f 20/46/5 19/47/5 23/48/5 24/24/5
f 17/49/4 18/50/4 22/47/4 21/46/4
f 18/51/3 20/52/3 24/53/3 22/54/3
f 19/55/2 17/56/2 21/52/2 23/51/2
f 22/57/1 24/58/1 28/59/1 26/60/1
f 23/61/1 21/62/1 25/63/1 27/64/1
f 24/58/1 23/61/1 27/64/1 28/59/1
f 21/62/1 22/57/1 26/60/1 25/63/1
f 28/65/5 27/66/5 31/67/5 32/68/5
f 25/69/4 26/70/4 30/71/4 29/72/4
f 26/73/3 28/74/3 32/75/3 30/76/3
f 27/77/2 25/78/2 29/79/2 31/80/2
f 32/81/1 31/82/1 51/83/1 52/84/1
f 36/85/5 35/86/5 38/87/5 37/88/5
f 33/89/4 34/90/4 39/91/4 40/92/4
f 34/93/2 36/94/2 37/90/2 39/95/2
f 35/96/3 33/97/3 40/98/3 38/99/3
f 39/100/6 37/17/6 41/101/6 43/102/6
f 40/103/6 39/104/6 43/105/6 44/106/6
f 37/107/6 38/108/6 42/18/6 41/109/6
f 38/110/6 40/111/6 44/112/6 42/113/6
f 44/114/4 43/115/4 47/116/4 48/117/4
f 41/118/5 42/119/5 46/120/5 45/121/5
f 42/122/3 44/123/3 48/124/3 46/125/3
f 43/126/2 41/127/2 45/128/2 47/129/2
f 45/9/6 46/10/6 48/130/6 47/131/6
f 2/132/6 36/133/6 34/134/6 4/135/6
f 1/16/6 35/136/6 36/137/6 2/15/6
f 3/138/6 33/139/6 35/140/6 1/141/6
f 4/8/6 34/142/6 33/143/6 3/7/6
f 50/144/3 52/145/3 56/146/3 54/147/3
f 29/148/1 30/149/1 50/150/1 49/151/1
f 30/149/1 32/81/1 52/84/1 50/150/1
f 31/82/1 29/148/1 49/151/1 51/83/1
f 54/147/7 56/146/7 60/152/7 58/153/7
f 51/154/2 49/155/2 53/156/2 55/157/2
f 52/158/5 51/154/5 55/157/5 56/159/5
f 49/160/4 50/161/4 54/162/4 53/163/4
f 59/164/2 57/165/2 61/166/2 63/167/2
f 55/168/8 53/169/8 57/165/8 59/164/8
f 56/170/9 55/171/9 59/172/9 60/173/9
f 53/163/10 54/162/10 58/174/10 57/175/10
f 64/176/11 63/177/11 67/178/11 68/179/11
f 60/173/5 59/172/5 63/177/5 64/176/5
f 57/175/4 58/174/4 62/180/4 61/181/4
f 58/153/3 60/152/3 64/182/3 62/183/3
f 68/179/5 67/178/5 71/184/5 72/185/5
f 61/181/12 62/180/12 66/186/12 65/187/12
f 62/183/13 64/182/13 68/188/13 66/189/13
f 63/167/14 61/166/14 65/190/14 67/191/14
f 69/192/1 70/193/1 72/194/1 71/195/1
f 65/187/4 66/186/4 70/196/4 69/197/4
f 66/189/3 68/188/3 72/198/3 70/199/3
f 67/191/2 65/190/2 69/200/2 71/201/2
