# Blender v2.90.1 OBJ File: 'default_crystals.blend'
# www.blender.org
mtllib default_crystals.mtl
o Cube.005_Cube.006
v -0.029896 -1.649288 0.306795
v -1.631691 0.259657 0.306795
v -0.029896 -1.649288 -0.405191
v -1.631691 0.259657 -0.405191
v 0.515517 -1.191633 0.306795
v -1.086278 0.717312 0.306795
v 0.515517 -1.191633 -0.405191
v -1.086278 0.717312 -0.405191
v -1.587812 0.761191 -0.049198
v -1.587812 0.761191 -0.049198
v -1.587812 0.761191 -0.049198
v -1.587812 0.761191 -0.049198
v -0.512464 -1.773162 0.450802
v -0.512465 1.117422 0.450802
v -0.512464 -1.773162 -0.549198
v -0.512465 1.117422 -0.549198
v 0.487535 -1.773162 0.450802
v 0.487535 1.117422 0.450802
v 0.487535 -1.773162 -0.549198
v 0.487535 1.117422 -0.549198
v -0.012465 1.617422 -0.049198
v -0.012465 1.617422 -0.049198
v -0.012465 1.617422 -0.049198
v -0.012465 1.617422 -0.049198
v -0.338672 -1.768513 0.344298
v -0.338672 -0.153868 1.958943
v -0.338672 -1.307186 -0.117029
v -0.338672 0.307459 1.497616
v 0.313743 -1.768513 0.344298
v 0.313743 -0.153868 1.958943
v 0.313743 -1.307186 -0.117029
v 0.313743 0.307458 1.497616
v -0.012465 0.307458 1.958943
v -0.012465 0.307458 1.958943
v -0.012465 0.307458 1.958943
v -0.012465 0.307458 1.958943
v -0.419800 -1.047308 0.373063
v -0.553118 0.651339 -1.148104
v -0.419800 -1.623367 -0.202997
v -0.553118 -0.113260 -1.912703
v 0.394871 -1.047308 0.373063
v 0.528189 0.651339 -1.148104
v 0.394871 -1.623367 -0.202997
v 0.528189 -0.113260 -1.912703
v -0.012465 0.651339 -1.912703
v -0.012465 0.651339 -1.912703
v -0.012465 0.651339 -1.912703
v -0.012465 0.651339 -1.912703
v -0.082404 -1.283169 0.254164
v 0.979365 0.544808 0.254164
v -0.082404 -1.283169 -0.352560
v 0.979365 0.544808 -0.352560
v 0.443035 -1.586532 0.254164
v 1.504804 0.241446 0.254164
v 0.443035 -1.586532 -0.352560
v 1.504804 0.241446 -0.352560
v 1.393765 0.655846 -0.049198
v 1.393765 0.655846 -0.049198
v 1.393765 0.655846 -0.049198
v 1.393765 0.655846 -0.049198
vt 0.375000 0.000000
vt 0.625000 0.000000
vt 0.625000 0.250000
vt 0.375000 0.250000
vt 0.625000 0.500000
vt 0.375000 0.500000
vt 0.625000 0.750000
vt 0.375000 0.750000
vt 0.625000 1.000000
vt 0.375000 1.000000
vt 0.625000 0.250000
vt 0.625000 0.500000
vt 0.625000 0.750000
vt 0.625000 0.000000
vt 0.625000 1.000000
vt 0.375000 0.000000
vt 0.625000 0.000000
vt 0.625000 0.250000
vt 0.375000 0.250000
vt 0.625000 0.500000
vt 0.375000 0.500000
vt 0.625000 0.750000
vt 0.375000 0.750000
vt 0.625000 1.000000
vt 0.375000 1.000000
vt 0.125000 0.500000
vt 0.125000 0.750000
vt 0.625000 0.250000
vt 0.625000 0.500000
vt 0.625000 0.750000
vt 0.625000 0.000000
vt 0.625000 1.000000
vt 0.375000 0.000000
vt 0.625000 0.000000
vt 0.625000 0.250000
vt 0.375000 0.250000
vt 0.625000 0.500000
vt 0.375000 0.500000
vt 0.625000 0.750000
vt 0.375000 0.750000
vt 0.625000 1.000000
vt 0.375000 1.000000
vt 0.625000 0.250000
vt 0.625000 0.500000
vt 0.625000 0.750000
vt 0.625000 0.000000
vt 0.625000 1.000000
vt 0.375000 0.000000
vt 0.625000 0.000000
vt 0.625000 0.250000
vt 0.375000 0.250000
vt 0.625000 0.500000
vt 0.375000 0.500000
vt 0.625000 0.750000
vt 0.375000 0.750000
vt 0.625000 1.000000
vt 0.375000 1.000000
vt 0.625000 0.250000
vt 0.625000 0.500000
vt 0.625000 0.750000
vt 0.625000 0.000000
vt 0.625000 1.000000
vt 0.375000 0.000000
vt 0.625000 0.000000
vt 0.625000 0.250000
vt 0.375000 0.250000
vt 0.625000 0.500000
vt 0.375000 0.500000
vt 0.625000 0.750000
vt 0.375000 0.750000
vt 0.625000 1.000000
vt 0.375000 1.000000
vt 0.625000 0.250000
vt 0.625000 0.500000
vt 0.625000 0.750000
vt 0.625000 0.000000
vt 0.625000 1.000000
vn -0.7660 -0.6428 0.0000
vn 0.0000 0.0000 -1.0000
vn 0.7660 0.6428 0.0000
vn 0.0000 0.0000 1.0000
vn -0.4545 0.5417 -0.7071
vn 0.0872 0.9962 0.0000
vn -0.9962 0.0872 0.0000
vn -0.4545 0.5417 0.7071
vn -1.0000 -0.0000 0.0000
vn 1.0000 -0.0000 0.0000
vn 0.0000 -1.0000 0.0000
vn -0.0000 0.7071 -0.7071
vn 0.7071 0.7071 0.0000
vn -0.7071 0.7071 0.0000
vn -0.0000 0.7071 0.7071
vn 0.0000 -0.7071 0.7071
vn 0.0000 1.0000 0.0000
vn 0.7071 0.5000 0.5000
vn -0.7071 0.5000 0.5000
vn -0.9983 -0.0413 0.0413
vn -0.0000 -0.7495 -0.6620
vn 0.9983 -0.0413 0.0413
vn 0.0000 0.6671 0.7450
vn 0.7071 0.5000 -0.5000
vn -0.7071 0.5000 -0.5000
vn -0.8647 0.5023 0.0000
vn 0.8647 -0.5023 0.0000
vn 0.3536 0.6124 -0.7071
vn 0.9659 0.2588 0.0000
vn -0.2588 0.9659 0.0000
vn 0.3536 0.6124 0.7071
usemtl None
s off
f 1/1/1 2/2/1 4/3/1 3/4/1
f 3/4/2 4/3/2 8/5/2 7/6/2
f 7/6/3 8/5/3 6/7/3 5/8/3
f 5/8/4 6/7/4 2/9/4 1/10/4
f 8/5/5 4/3/5 10/11/5 12/12/5
f 6/7/6 8/5/6 12/12/6 11/13/6
f 4/3/7 2/2/7 9/14/7 10/11/7
f 2/9/8 6/7/8 11/13/8 9/15/8
f 13/16/9 14/17/9 16/18/9 15/19/9
f 15/19/2 16/18/2 20/20/2 19/21/2
f 19/21/10 20/20/10 18/22/10 17/23/10
f 17/23/4 18/22/4 14/24/4 13/25/4
f 15/26/11 19/21/11 17/23/11 13/27/11
f 20/20/12 16/18/12 22/28/12 24/29/12
f 18/22/13 20/20/13 24/29/13 23/30/13
f 16/18/14 14/17/14 21/31/14 22/28/14
f 14/24/15 18/22/15 23/30/15 21/32/15
f 25/33/9 26/34/9 28/35/9 27/36/9
f 27/36/12 28/35/12 32/37/12 31/38/12
f 31/38/10 32/37/10 30/39/10 29/40/10
f 29/40/16 30/39/16 26/41/16 25/42/16
f 32/37/17 28/35/17 34/43/17 36/44/17
f 30/39/18 32/37/18 36/44/18 35/45/18
f 28/35/19 26/34/19 33/46/19 34/43/19
f 26/41/4 30/39/4 35/45/4 33/47/4
f 37/48/20 38/49/20 40/50/20 39/51/20
f 39/51/21 40/50/21 44/52/21 43/53/21
f 43/53/22 44/52/22 42/54/22 41/55/22
f 41/55/23 42/54/23 38/56/23 37/57/23
f 44/52/2 40/50/2 46/58/2 48/59/2
f 42/54/24 44/52/24 48/59/24 47/60/24
f 40/50/25 38/49/25 45/61/25 46/58/25
f 38/56/17 42/54/17 47/60/17 45/62/17
f 49/63/26 50/64/26 52/65/26 51/66/26
f 51/66/2 52/65/2 56/67/2 55/68/2
f 55/68/27 56/67/27 54/69/27 53/70/27
f 53/70/4 54/69/4 50/71/4 49/72/4
f 56/67/28 52/65/28 58/73/28 60/74/28
f 54/69/29 56/67/29 60/74/29 59/75/29
f 52/65/30 50/64/30 57/76/30 58/73/30
f 50/71/31 54/69/31 59/75/31 57/77/31
