# Blender v2.79 (sub 0) OBJ File: 'default_dye.blend'
# www.blender.org
mtllib default_dye.mtl
o Cube_Cube.001
v -0.611349 -0.237851 0.026612
v 0.588651 -0.237851 0.026612
v 0.588651 -0.087851 0.026612
v 0.138651 0.362149 0.026612
v -0.611349 -0.087851 0.026612
v 0.438651 0.062149 0.026612
v 0.288651 0.212149 0.026612
v -0.461349 0.062149 0.026612
v -0.311349 0.212149 0.026612
v -0.311349 0.137149 0.026612
v -0.086349 0.362149 0.026612
v 0.513651 0.062149 0.026612
v 0.288651 0.287149 0.026612
v -0.386349 0.062149 0.026612
v -0.236349 0.212149 0.026612
v -0.536349 -0.087851 0.026612
v -0.461349 -0.012851 0.026612
v 0.363651 0.212149 0.026612
v 0.438651 0.137149 0.026612
v 0.513651 -0.087851 0.026612
v 0.138651 0.287149 0.026612
v -0.386349 0.137149 0.026612
v 0.363651 0.137149 0.026612
v -0.086349 0.287149 0.026612
v -0.236349 0.287149 0.026612
v -0.536349 -0.012851 0.026612
v 0.513651 0.062149 -0.026612
v 0.438651 0.062149 -0.026612
v 0.288651 0.287149 -0.026612
v 0.288651 0.212149 -0.026612
v -0.386349 0.062149 -0.026612
v -0.461349 0.062149 -0.026612
v -0.236349 0.212149 -0.026612
v -0.311349 0.212149 -0.026612
v -0.536349 -0.087851 -0.026612
v -0.611349 -0.087851 -0.026612
v 0.363651 0.212149 -0.026612
v 0.438651 0.137149 -0.026612
v 0.588651 -0.087851 -0.026612
v 0.588651 -0.237851 -0.026612
v -0.611349 -0.237851 -0.026612
v -0.311349 0.137149 -0.026612
v 0.138651 0.362149 -0.026612
v -0.086349 0.362149 -0.026612
v -0.461349 -0.012851 -0.026612
v 0.513651 -0.087851 -0.026612
v 0.138651 0.287149 -0.026612
v -0.386349 0.137149 -0.026612
v 0.363651 0.137149 -0.026612
v -0.086349 0.287149 -0.026612
v -0.236349 0.287149 -0.026612
v -0.536349 -0.012851 -0.026612
vt 0.500000 1.000000
vt 0.619658 0.985471
vt 0.732362 0.942728
vt 0.831561 0.874255
vt 0.911492 0.784032
vt 0.967508 0.677302
vt 0.996354 0.560268
vt 0.996354 0.439732
vt 0.967508 0.322698
vt 0.911492 0.215968
vt 0.831561 0.125745
vt 0.732362 0.057272
vt 0.619658 0.014529
vt 0.500000 0.000000
vt 0.380342 0.014529
vt 0.267638 0.057272
vt 0.168438 0.125745
vt 0.088508 0.215968
vt 0.032492 0.322698
vt 0.003646 0.439732
vt 0.003646 0.560269
vt 0.032492 0.677303
vt 0.088508 0.784033
vt 0.168439 0.874256
vt 0.267639 0.942728
vt 0.380343 0.985471
vt 0.500000 1.000000
vt 0.619658 0.985471
vt 0.732362 0.942728
vt 0.831561 0.874255
vt 0.911492 0.784032
vt 0.967508 0.677302
vt 0.996354 0.560268
vt 0.996354 0.439732
vt 0.967508 0.322698
vt 0.911492 0.215968
vt 0.831561 0.125745
vt 0.732362 0.057272
vt 0.619658 0.014529
vt 0.500000 0.000000
vt 0.380342 0.014529
vt 0.267638 0.057272
vt 0.168438 0.125745
vt 0.088508 0.215968
vt 0.032492 0.322698
vt 0.003646 0.439732
vt 0.003646 0.560269
vt 0.032492 0.677303
vt 0.088508 0.784033
vt 0.168439 0.874256
vt 0.267639 0.942728
vt 0.380343 0.985471
vt 0.000000 0.000000
vt 1.000000 0.000000
vt 1.000000 1.000000
vt 0.000000 1.000000
vt 0.000000 0.000000
vt 1.000000 0.000000
vt 1.000000 1.000000
vt 0.000000 1.000000
vt 0.000000 0.000000
vt 1.000000 0.000000
vt 1.000000 1.000000
vt 0.000000 1.000000
vt 0.000000 0.000000
vt 1.000000 0.000000
vt 1.000000 1.000000
vt 0.000000 1.000000
vt 0.000000 0.000000
vt 1.000000 0.000000
vt 1.000000 1.000000
vt 0.000000 1.000000
vt 0.000000 0.000000
vt 1.000000 0.000000
vt 1.000000 1.000000
vt 0.000000 1.000000
vt 0.000000 0.000000
vt 1.000000 0.000000
vt 1.000000 1.000000
vt 0.000000 1.000000
vt 0.000000 0.000000
vt 1.000000 0.000000
vt 1.000000 1.000000
vt 0.000000 1.000000
vt 0.000000 0.000000
vt 1.000000 0.000000
vt 1.000000 1.000000
vt 0.000000 1.000000
vt 0.000000 0.000000
vt 1.000000 0.000000
vt 1.000000 1.000000
vt 0.000000 1.000000
vt 0.000000 0.000000
vt 1.000000 0.000000
vt 1.000000 1.000000
vt 0.000000 1.000000
vt 0.000000 0.000000
vt 1.000000 0.000000
vt 1.000000 1.000000
vt 0.000000 1.000000
vt 0.000000 0.000000
vt 1.000000 0.000000
vt 1.000000 1.000000
vt 0.000000 1.000000
vt 0.000000 0.000000
vt 1.000000 0.000000
vt 1.000000 1.000000
vt 0.000000 1.000000
vt 0.000000 0.000000
vt 1.000000 0.000000
vt 1.000000 1.000000
vt 0.000000 1.000000
vt 0.000000 0.000000
vt 1.000000 0.000000
vt 1.000000 1.000000
vt 0.000000 1.000000
vt 0.000000 0.000000
vt 1.000000 0.000000
vt 1.000000 1.000000
vt 0.000000 1.000000
vt 0.000000 0.000000
vt 1.000000 0.000000
vt 1.000000 1.000000
vt 0.000000 1.000000
vt 0.000000 0.000000
vt 1.000000 0.000000
vt 1.000000 1.000000
vt 0.000000 1.000000
vt 0.000000 0.000000
vt 1.000000 0.000000
vt 1.000000 1.000000
vt 0.000000 1.000000
vt 0.000000 0.000000
vt 1.000000 0.000000
vt 1.000000 1.000000
vt 0.000000 1.000000
vt 0.000000 0.000000
vt 1.000000 0.000000
vt 1.000000 1.000000
vt 0.000000 1.000000
vt 0.000000 0.000000
vt 1.000000 0.000000
vt 1.000000 1.000000
vt 0.000000 1.000000
vt 0.000000 0.000000
vt 1.000000 0.000000
vt 1.000000 1.000000
vt 0.000000 1.000000
vt 0.000000 0.000000
vt 1.000000 0.000000
vt 1.000000 1.000000
vt 0.000000 1.000000
vt 0.000000 0.000000
vt 1.000000 0.000000
vt 1.000000 1.000000
vt 0.000000 1.000000
vn 0.0000 0.0000 1.0000
vn 0.0000 0.0000 -1.0000
vn 0.0000 1.0000 0.0000
vn 1.0000 0.0000 0.0000
vn -1.0000 0.0000 0.0000
vn 0.0000 -1.0000 0.0000
usemtl Material.001
s off
f 2/1/1 3/2/1 20/3/1 12/4/1 6/5/1 19/6/1 23/7/1 18/8/1 7/9/1 13/10/1 21/11/1 4/12/1 11/13/1 24/14/1 25/15/1 15/16/1 9/17/1 10/18/1 22/19/1 14/20/1 8/21/1 17/22/1 26/23/1 16/24/1 5/25/1 1/26/1
f 40/27/2 41/28/2 36/29/2 35/30/2 52/31/2 45/32/2 32/33/2 31/34/2 48/35/2 42/36/2 34/37/2 33/38/2 51/39/2 50/40/2 44/41/2 43/42/2 47/43/2 29/44/2 30/45/2 37/46/2 49/47/2 38/48/2 28/49/2 27/50/2 46/51/2 39/52/2
f 3/53/3 39/54/3 46/55/3 20/56/3
f 6/57/4 28/58/4 38/59/4 19/60/4
f 11/61/5 44/62/5 50/63/5 24/64/5
f 21/65/4 47/66/4 43/67/4 4/68/4
f 2/69/4 40/70/4 39/71/4 3/72/4
f 24/73/3 50/74/3 51/75/3 25/76/3
f 12/77/3 27/78/3 28/79/3 6/80/3
f 10/81/3 42/82/3 48/83/3 22/84/3
f 1/85/6 41/86/6 40/87/6 2/88/6
f 25/89/5 51/90/5 33/91/5 15/92/5
f 7/93/4 30/94/4 29/95/4 13/96/4
f 22/97/5 48/98/5 31/99/5 14/100/5
f 9/101/5 34/102/5 42/103/5 10/104/5
f 17/105/3 45/106/3 52/107/3 26/108/3
f 14/109/3 31/110/3 32/111/3 8/112/3
f 13/113/3 29/114/3 47/115/3 21/116/3
f 5/117/5 36/118/5 41/119/5 1/120/5
f 26/121/5 52/122/5 35/123/5 16/124/5
f 15/125/3 33/126/3 34/127/3 9/128/3
f 20/129/4 46/130/4 27/131/4 12/132/4
f 4/133/3 43/134/3 44/135/3 11/136/3
f 16/137/3 35/138/3 36/139/3 5/140/3
f 19/141/3 38/142/3 49/143/3 23/144/3
f 8/145/5 32/146/5 45/147/5 17/148/5
f 18/149/3 37/150/3 30/151/3 7/152/3
f 23/153/4 49/154/4 37/155/4 18/156/4
