# Blender v3.0.0 OBJ File: 'default_atomcore.blend'
# www.blender.org
mtllib default_atomcore.mtl
o Cube.001
v -0.310000 -0.310000 -0.130000
v -0.310000 -0.130000 -0.130000
v -0.310000 -0.310000 -0.310000
v -0.310000 -0.130000 -0.310000
v -0.130000 -0.310000 -0.130000
v -0.130000 -0.130000 -0.130000
v -0.130000 -0.310000 -0.310000
v -0.130000 -0.130000 -0.310000
v -0.310000 -0.310000 0.090000
v -0.310000 -0.130000 0.090000
v -0.310000 -0.310000 -0.090000
v -0.310000 -0.130000 -0.090000
v -0.130000 -0.310000 0.090000
v -0.130000 -0.130000 0.090000
v -0.130000 -0.310000 -0.090000
v -0.130000 -0.130000 -0.090000
v -0.310000 -0.090000 -0.130000
v -0.310000 0.090000 -0.130000
v -0.310000 -0.090000 -0.310000
v -0.310000 0.090000 -0.310000
v -0.130000 -0.090000 -0.130000
v -0.130000 0.090000 -0.130000
v -0.130000 -0.090000 -0.310000
v -0.130000 0.090000 -0.310000
v -0.310000 -0.090000 0.090000
v -0.310000 0.090000 0.090000
v -0.310000 -0.090000 -0.090000
v -0.310000 0.090000 -0.090000
v -0.130000 -0.090000 0.090000
v -0.130000 0.090000 0.090000
v -0.130000 -0.090000 -0.090000
v -0.130000 0.090000 -0.090000
v 0.130000 -0.310000 0.090000
v 0.130000 -0.130000 0.090000
v 0.130000 -0.310000 -0.090000
v 0.130000 -0.130000 -0.090000
v 0.310000 -0.310000 0.090000
v 0.310000 -0.130000 0.090000
v 0.310000 -0.310000 -0.090000
v 0.310000 -0.130000 -0.090000
v -0.310000 -0.310000 0.310000
v -0.310000 -0.130000 0.310000
v -0.310000 -0.310000 0.130000
v -0.310000 -0.130000 0.130000
v -0.130000 -0.310000 0.310000
v -0.130000 -0.130000 0.310000
v -0.130000 -0.310000 0.130000
v -0.130000 -0.130000 0.130000
v 0.130000 -0.310000 0.310000
v 0.130000 -0.130000 0.310000
v 0.130000 -0.310000 0.130000
v 0.130000 -0.130000 0.130000
v 0.310000 -0.310000 0.310000
v 0.310000 -0.130000 0.310000
v 0.310000 -0.310000 0.130000
v 0.310000 -0.130000 0.130000
v -0.090000 -0.310000 0.310000
v -0.090000 -0.130000 0.310000
v -0.090000 -0.310000 0.130000
v -0.090000 -0.130000 0.130000
v 0.090000 -0.310000 0.310000
v 0.090000 -0.130000 0.310000
v 0.090000 -0.310000 0.130000
v 0.090000 -0.130000 0.130000
v -0.310000 -0.090000 0.310000
v -0.310000 0.090000 0.310000
v -0.310000 -0.090000 0.130000
v -0.310000 0.090000 0.130000
v -0.130000 -0.090000 0.310000
v -0.130000 0.090000 0.310000
v -0.130000 -0.090000 0.130000
v -0.130000 0.090000 0.130000
v 0.130000 -0.090000 0.310000
v 0.130000 0.090000 0.310000
v 0.130000 -0.090000 0.130000
v 0.130000 0.090000 0.130000
v 0.310000 -0.090000 0.310000
v 0.310000 0.090000 0.310000
v 0.310000 -0.090000 0.130000
v 0.310000 0.090000 0.130000
v -0.090000 -0.090000 0.310000
v -0.090000 0.090000 0.310000
v -0.090000 -0.090000 0.130000
v -0.090000 0.090000 0.130000
v 0.090000 -0.090000 0.310000
v 0.090000 0.090000 0.310000
v 0.090000 -0.090000 0.130000
v 0.090000 0.090000 0.130000
v -0.310000 0.130000 -0.130000
v -0.310000 0.310000 -0.130000
v -0.310000 0.130000 -0.310000
v -0.310000 0.310000 -0.310000
v -0.130000 0.130000 -0.130000
v -0.130000 0.310000 -0.130000
v -0.130000 0.130000 -0.310000
v -0.130000 0.310000 -0.310000
v -0.310000 0.130000 0.090000
v -0.310000 0.310000 0.090000
v -0.310000 0.130000 -0.090000
v -0.310000 0.310000 -0.090000
v -0.130000 0.130000 0.090000
v -0.130000 0.310000 0.090000
v -0.130000 0.130000 -0.090000
v -0.130000 0.310000 -0.090000
v -0.310000 0.130000 0.310000
v -0.310000 0.310000 0.310000
v -0.310000 0.130000 0.130000
v -0.310000 0.310000 0.130000
v -0.130000 0.130000 0.310000
v -0.130000 0.310000 0.310000
v -0.130000 0.130000 0.130000
v -0.130000 0.310000 0.130000
v 0.130000 0.130000 -0.130000
v 0.130000 0.310000 -0.130000
v 0.130000 0.130000 -0.310000
v 0.130000 0.310000 -0.310000
v 0.310000 0.130000 -0.130000
v 0.310000 0.310000 -0.130000
v 0.310000 0.130000 -0.310000
v 0.310000 0.310000 -0.310000
v 0.130000 0.130000 0.090000
v 0.130000 0.310000 0.090000
v 0.130000 0.130000 -0.090000
v 0.130000 0.310000 -0.090000
v 0.310000 0.130000 0.090000
v 0.310000 0.310000 0.090000
v 0.310000 0.130000 -0.090000
v 0.310000 0.310000 -0.090000
v -0.090000 0.130000 0.310000
v -0.090000 0.310000 0.310000
v -0.090000 0.130000 0.130000
v -0.090000 0.310000 0.130000
v 0.090000 0.130000 0.310000
v 0.090000 0.310000 0.310000
v 0.090000 0.130000 0.130000
v 0.090000 0.310000 0.130000
v -0.090000 0.130000 0.090000
v -0.090000 0.310000 0.090000
v -0.090000 0.130000 -0.090000
v -0.090000 0.310000 -0.090000
v 0.090000 0.130000 0.090000
v 0.090000 0.310000 0.090000
v 0.090000 0.130000 -0.090000
v 0.090000 0.310000 -0.090000
v 0.130000 0.130000 0.310000
v 0.130000 0.310000 0.310000
v 0.130000 0.130000 0.130000
v 0.130000 0.310000 0.130000
v 0.310000 0.130000 0.310000
v 0.310000 0.310000 0.310000
v 0.310000 0.130000 0.130000
v 0.310000 0.310000 0.130000
v -0.090000 -0.090000 0.090000
v -0.090000 0.090000 0.090000
v -0.090000 -0.090000 -0.090000
v -0.090000 0.090000 -0.090000
v 0.090000 -0.090000 0.090000
v 0.090000 0.090000 0.090000
v 0.090000 -0.090000 -0.090000
v 0.090000 0.090000 -0.090000
v -0.090000 0.130000 -0.130000
v -0.090000 0.310000 -0.130000
v -0.090000 0.130000 -0.310000
v -0.090000 0.310000 -0.310000
v 0.090000 0.130000 -0.130000
v 0.090000 0.310000 -0.130000
v 0.090000 0.130000 -0.310000
v 0.090000 0.310000 -0.310000
v 0.130000 -0.090000 -0.130000
v 0.130000 0.090000 -0.130000
v 0.130000 -0.090000 -0.310000
v 0.130000 0.090000 -0.310000
v 0.310000 -0.090000 -0.130000
v 0.310000 0.090000 -0.130000
v 0.310000 -0.090000 -0.310000
v 0.310000 0.090000 -0.310000
v 0.130000 -0.090000 0.090000
v 0.130000 0.090000 0.090000
v 0.130000 -0.090000 -0.090000
v 0.130000 0.090000 -0.090000
v 0.310000 -0.090000 0.090000
v 0.310000 0.090000 0.090000
v 0.310000 -0.090000 -0.090000
v 0.310000 0.090000 -0.090000
v 0.139000 -0.301000 -0.139000
v 0.139000 -0.139000 -0.139000
v 0.139000 -0.301000 -0.301000
v 0.139000 -0.139000 -0.301000
v 0.301000 -0.301000 -0.139000
v 0.301000 -0.139000 -0.139000
v 0.301000 -0.301000 -0.301000
v 0.301000 -0.139000 -0.301000
v -0.090000 -0.310000 -0.130000
v -0.090000 -0.130000 -0.130000
v -0.090000 -0.310000 -0.310000
v -0.090000 -0.130000 -0.310000
v 0.090000 -0.310000 -0.130000
v 0.090000 -0.130000 -0.130000
v 0.090000 -0.310000 -0.310000
v 0.090000 -0.130000 -0.310000
v -0.090000 -0.310000 0.090000
v -0.090000 -0.130000 0.090000
v -0.090000 -0.310000 -0.090000
v -0.090000 -0.130000 -0.090000
v 0.090000 -0.310000 0.090000
v 0.090000 -0.130000 0.090000
v 0.090000 -0.310000 -0.090000
v 0.090000 -0.130000 -0.090000
v -0.090000 -0.090000 -0.130000
v -0.090000 0.090000 -0.130000
v -0.090000 -0.090000 -0.310000
v -0.090000 0.090000 -0.310000
v 0.090000 -0.090000 -0.130000
v 0.090000 0.090000 -0.130000
v 0.090000 -0.090000 -0.310000
v 0.090000 0.090000 -0.310000
vt 0.126168 0.371404
vt 0.250308 0.440505
vt 0.232701 0.551539
vt 0.096941 0.485272
vt 0.335259 0.366682
vt 0.323225 0.481067
vt 0.207110 0.286006
vt 0.182485 0.402723
vt 0.227004 0.265017
vt 0.355993 0.348665
vt 0.345487 0.463736
vt 0.203696 0.382255
vt 0.459265 0.258922
vt 0.457367 0.376639
vt 0.326919 0.159602
vt 0.311354 0.278367
vt 0.089778 0.513181
vt 0.228414 0.578569
vt 0.207129 0.712796
vt 0.053919 0.652890
vt 0.320274 0.509124
vt 0.305484 0.649698
vt 0.176397 0.431583
vt 0.145595 0.577576
vt 0.197920 0.411307
vt 0.342905 0.492014
vt 0.329941 0.634007
vt 0.168626 0.558655
vt 0.456896 0.405837
vt 0.454506 0.554094
vt 0.307454 0.308122
vt 0.287408 0.461073
vt 0.512269 0.450009
vt 0.604095 0.509558
vt 0.612954 0.617439
vt 0.514756 0.561008
vt 0.708775 0.446169
vt 0.726373 0.557690
vt 0.617191 0.377439
vt 0.628568 0.491863
vt 0.351755 0.133399
vt 0.484716 0.236806
vt 0.485197 0.354974
vt 0.338410 0.252257
vt 0.612948 0.125373
vt 0.626996 0.244586
vt 0.478193 0.000000
vt 0.478022 0.117533
vt 0.642782 0.359738
vt 0.734154 0.430800
vt 0.754050 0.543109
vt 0.656536 0.474872
vt 0.859590 0.354842
vt 0.891884 0.470498
vt 0.770158 0.271637
vt 0.796973 0.389552
vt 0.511394 0.257555
vt 0.620651 0.342526
vt 0.632750 0.458227
vt 0.514354 0.375378
vt 0.748339 0.251337
vt 0.773623 0.369638
vt 0.639707 0.150269
vt 0.656215 0.269506
vt 0.335058 0.282118
vt 0.485316 0.384352
vt 0.485926 0.533937
vt 0.317766 0.436133
vt 0.630529 0.274572
vt 0.648780 0.429459
vt 0.477979 0.147481
vt 0.477750 0.304703
vt 0.659913 0.503144
vt 0.758901 0.570494
vt 0.783037 0.706742
vt 0.676857 0.644986
vt 0.899820 0.498921
vt 0.939675 0.641651
vt 0.803618 0.418774
vt 0.837324 0.566991
vt 0.515089 0.404608
vt 0.635726 0.486688
vt 0.650688 0.629765
vt 0.518818 0.553068
vt 0.779901 0.399015
vt 0.811827 0.548393
vt 0.660357 0.299422
vt 0.681682 0.453460
vt 0.045037 0.687499
vt 0.201900 0.745773
vt 0.175651 0.911306
vt 0.000000 0.862965
vt 0.301817 0.684554
vt 0.283204 0.861472
vt 0.137881 0.614139
vt 0.098249 0.801993
vt 0.161270 0.595659
vt 0.326720 0.669296
vt 0.310321 0.848907
vt 0.123346 0.786418
vt 0.453905 0.591370
vt 0.450803 0.783815
vt 0.282304 0.500026
vt 0.255520 0.704392
vt 0.313347 0.475498
vt 0.486079 0.571657
vt 0.486875 0.767101
vt 0.290055 0.682960
vt 0.653452 0.469108
vt 0.678124 0.678485
vt 0.477691 0.345644
vt 0.477369 0.566714
vt 0.388587 0.815126
vt 0.496605 0.855253
vt 0.497923 1.000000
vt 0.380951 0.967808
vt 0.602385 0.813656
vt 0.612759 0.967451
vt 0.493322 0.766811
vt 0.494576 0.929446
vt 0.519100 0.754920
vt 0.628233 0.803492
vt 0.641038 0.959436
vt 0.522796 0.919918
vt 0.757159 0.752793
vt 0.783400 0.919085
vt 0.648775 0.695100
vt 0.666311 0.871464
vt 0.519756 0.590405
vt 0.654410 0.665366
vt 0.673387 0.846835
vt 0.524600 0.783228
vt 0.819866 0.586007
vt 0.861445 0.780551
vt 0.687123 0.492761
vt 0.715735 0.699426
vt 0.359514 0.683892
vt 0.492440 0.743054
vt 0.493662 0.910181
vt 0.346912 0.861136
vt 0.622064 0.680881
vt 0.637154 0.859605
vt 0.487474 0.609239
vt 0.488393 0.799103
vt 0.681065 0.680205
vt 0.788979 0.740280
vt 0.818873 0.909031
vt 0.702454 0.859261
vt 0.949580 0.677125
vt 1.000000 0.857692
vt 0.845789 0.604216
vt 0.889433 0.796133
vt 0.372005 0.508213
vt 0.491209 0.574568
vt 0.492197 0.709799
vt 0.361996 0.648981
vt 0.607136 0.504073
vt 0.619095 0.645719
vt 0.486583 0.425248
vt 0.487295 0.572347
vt 0.233394 0.757472
vt 0.362436 0.805411
vt 0.352434 0.959959
vt 0.210567 0.920916
vt 0.466727 0.755388
vt 0.465518 0.920101
vt 0.334395 0.698547
vt 0.319514 0.873148
vt 0.396454 0.657824
vt 0.495231 0.704412
vt 0.496337 0.825880
vt 0.390126 0.784350
vt 0.591710 0.655410
vt 0.600295 0.782680
vt 0.492049 0.601699
vt 0.493072 0.734314
vt 0.515361 0.588013
vt 0.615097 0.643532
vt 0.625658 0.772141
vt 0.518363 0.722021
vt 0.730657 0.584839
vt 0.751932 0.719667
vt 0.631356 0.519910
vt 0.645317 0.660316
vt 0.411780 0.530385
vt 0.493971 0.576136
vt 0.494816 0.669473
vt 0.407542 0.626291
vt 0.574016 0.527659
vt 0.579942 0.623971
vt 0.491206 0.476147
vt 0.491977 0.575005
vt 0.275689 0.454633
vt 0.381332 0.513438
vt 0.374390 0.620700
vt 0.260275 0.564999
vt 0.468963 0.450856
vt 0.468149 0.561739
vt 0.361283 0.383066
vt 0.351585 0.496853
vt 0.382144 0.365624
vt 0.490194 0.435694
vt 0.491010 0.547362
vt 0.374003 0.480123
vt 0.595041 0.360816
vt 0.604752 0.475834
vt 0.485875 0.278892
vt 0.486443 0.396208
vt 0.256528 0.591828
vt 0.372712 0.646626
vt 0.364449 0.774310
vt 0.237950 0.724848
vt 0.467951 0.588712
vt 0.466968 0.722539
vt 0.349210 0.524718
vt 0.337334 0.664064
vn 0.0000 0.0000 1.0000
vn -1.0000 0.0000 0.0000
vn 0.0000 1.0000 0.0000
vn 1.0000 0.0000 0.0000
vn 0.0000 0.0000 -1.0000
vn 0.0000 -1.0000 0.0000
usemtl None
s off
f 3/1/1 7/2/1 8/3/1 4/4/1
f 7/2/2 5/5/2 6/6/2 8/3/2
f 3/1/3 1/7/3 5/5/3 7/2/3
f 1/7/4 3/1/4 4/4/4 2/8/4
f 5/5/5 1/7/5 2/8/5 6/6/5
f 8/3/6 6/6/6 2/8/6 4/4/6
f 11/9/1 15/10/1 16/11/1 12/12/1
f 15/10/2 13/13/2 14/14/2 16/11/2
f 11/9/3 9/15/3 13/13/3 15/10/3
f 9/15/4 11/9/4 12/12/4 10/16/4
f 13/13/5 9/15/5 10/16/5 14/14/5
f 16/11/6 14/14/6 10/16/6 12/12/6
f 19/17/1 23/18/1 24/19/1 20/20/1
f 23/18/2 21/21/2 22/22/2 24/19/2
f 19/17/3 17/23/3 21/21/3 23/18/3
f 17/23/4 19/17/4 20/20/4 18/24/4
f 21/21/5 17/23/5 18/24/5 22/22/5
f 24/19/6 22/22/6 18/24/6 20/20/6
f 27/25/1 31/26/1 32/27/1 28/28/1
f 31/26/2 29/29/2 30/30/2 32/27/2
f 27/25/3 25/31/3 29/29/3 31/26/3
f 25/31/4 27/25/4 28/28/4 26/32/4
f 29/29/5 25/31/5 26/32/5 30/30/5
f 32/27/6 30/30/6 26/32/6 28/28/6
f 35/33/1 39/34/1 40/35/1 36/36/1
f 39/34/2 37/37/2 38/38/2 40/35/2
f 35/33/3 33/39/3 37/37/3 39/34/3
f 33/39/4 35/33/4 36/36/4 34/40/4
f 37/37/5 33/39/5 34/40/5 38/38/5
f 40/35/6 38/38/6 34/40/6 36/36/6
f 43/41/1 47/42/1 48/43/1 44/44/1
f 47/42/2 45/45/2 46/46/2 48/43/2
f 43/41/3 41/47/3 45/45/3 47/42/3
f 41/47/4 43/41/4 44/44/4 42/48/4
f 45/45/5 41/47/5 42/48/5 46/46/5
f 48/43/6 46/46/6 42/48/6 44/44/6
f 51/49/1 55/50/1 56/51/1 52/52/1
f 55/50/2 53/53/2 54/54/2 56/51/2
f 51/49/3 49/55/3 53/53/3 55/50/3
f 49/55/4 51/49/4 52/52/4 50/56/4
f 53/53/5 49/55/5 50/56/5 54/54/5
f 56/51/6 54/54/6 50/56/6 52/52/6
f 59/57/1 63/58/1 64/59/1 60/60/1
f 63/58/2 61/61/2 62/62/2 64/59/2
f 59/57/3 57/63/3 61/61/3 63/58/3
f 57/63/4 59/57/4 60/60/4 58/64/4
f 61/61/5 57/63/5 58/64/5 62/62/5
f 64/59/6 62/62/6 58/64/6 60/60/6
f 67/65/1 71/66/1 72/67/1 68/68/1
f 71/66/2 69/69/2 70/70/2 72/67/2
f 67/65/3 65/71/3 69/69/3 71/66/3
f 65/71/4 67/65/4 68/68/4 66/72/4
f 69/69/5 65/71/5 66/72/5 70/70/5
f 72/67/6 70/70/6 66/72/6 68/68/6
f 75/73/1 79/74/1 80/75/1 76/76/1
f 79/74/2 77/77/2 78/78/2 80/75/2
f 75/73/3 73/79/3 77/77/3 79/74/3
f 73/79/4 75/73/4 76/76/4 74/80/4
f 77/77/5 73/79/5 74/80/5 78/78/5
f 80/75/6 78/78/6 74/80/6 76/76/6
f 83/81/1 87/82/1 88/83/1 84/84/1
f 87/82/2 85/85/2 86/86/2 88/83/2
f 83/81/3 81/87/3 85/85/3 87/82/3
f 81/87/4 83/81/4 84/84/4 82/88/4
f 85/85/5 81/87/5 82/88/5 86/86/5
f 88/83/6 86/86/6 82/88/6 84/84/6
f 91/89/1 95/90/1 96/91/1 92/92/1
f 95/90/2 93/93/2 94/94/2 96/91/2
f 91/89/3 89/95/3 93/93/3 95/90/3
f 89/95/4 91/89/4 92/92/4 90/96/4
f 93/93/5 89/95/5 90/96/5 94/94/5
f 96/91/6 94/94/6 90/96/6 92/92/6
f 99/97/1 103/98/1 104/99/1 100/100/1
f 103/98/2 101/101/2 102/102/2 104/99/2
f 99/97/3 97/103/3 101/101/3 103/98/3
f 97/103/4 99/97/4 100/100/4 98/104/4
f 101/101/5 97/103/5 98/104/5 102/102/5
f 104/99/6 102/102/6 98/104/6 100/100/6
f 107/105/1 111/106/1 112/107/1 108/108/1
f 111/106/2 109/109/2 110/110/2 112/107/2
f 107/105/3 105/111/3 109/109/3 111/106/3
f 105/111/4 107/105/4 108/108/4 106/112/4
f 109/109/5 105/111/5 106/112/5 110/110/5
f 112/107/6 110/110/6 106/112/6 108/108/6
f 115/113/1 119/114/1 120/115/1 116/116/1
f 119/114/2 117/117/2 118/118/2 120/115/2
f 115/113/3 113/119/3 117/117/3 119/114/3
f 113/119/4 115/113/4 116/116/4 114/120/4
f 117/117/5 113/119/5 114/120/5 118/118/5
f 120/115/6 118/118/6 114/120/6 116/116/6
f 123/121/1 127/122/1 128/123/1 124/124/1
f 127/122/2 125/125/2 126/126/2 128/123/2
f 123/121/3 121/127/3 125/125/3 127/122/3
f 121/127/4 123/121/4 124/124/4 122/128/4
f 125/125/5 121/127/5 122/128/5 126/126/5
f 128/123/6 126/126/6 122/128/6 124/124/6
f 131/129/1 135/130/1 136/131/1 132/132/1
f 135/130/2 133/133/2 134/134/2 136/131/2
f 131/129/3 129/135/3 133/133/3 135/130/3
f 129/135/4 131/129/4 132/132/4 130/136/4
f 133/133/5 129/135/5 130/136/5 134/134/5
f 136/131/6 134/134/6 130/136/6 132/132/6
f 139/137/1 143/138/1 144/139/1 140/140/1
f 143/138/2 141/141/2 142/142/2 144/139/2
f 139/137/3 137/143/3 141/141/3 143/138/3
f 137/143/4 139/137/4 140/140/4 138/144/4
f 141/141/5 137/143/5 138/144/5 142/142/5
f 144/139/6 142/142/6 138/144/6 140/140/6
f 147/145/1 151/146/1 152/147/1 148/148/1
f 151/146/2 149/149/2 150/150/2 152/147/2
f 147/145/3 145/151/3 149/149/3 151/146/3
f 145/151/4 147/145/4 148/148/4 146/152/4
f 149/149/5 145/151/5 146/152/5 150/150/5
f 152/147/6 150/150/6 146/152/6 148/148/6
f 155/153/1 159/154/1 160/155/1 156/156/1
f 159/154/2 157/157/2 158/158/2 160/155/2
f 155/153/3 153/159/3 157/157/3 159/154/3
f 153/159/4 155/153/4 156/156/4 154/160/4
f 157/157/5 153/159/5 154/160/5 158/158/5
f 160/155/6 158/158/6 154/160/6 156/156/6
f 163/161/1 167/162/1 168/163/1 164/164/1
f 167/162/2 165/165/2 166/166/2 168/163/2
f 163/161/3 161/167/3 165/165/3 167/162/3
f 161/167/4 163/161/4 164/164/4 162/168/4
f 165/165/5 161/167/5 162/168/5 166/166/5
f 168/163/6 166/166/6 162/168/6 164/164/6
f 171/169/1 175/170/1 176/171/1 172/172/1
f 175/170/2 173/173/2 174/174/2 176/171/2
f 171/169/3 169/175/3 173/173/3 175/170/3
f 169/175/4 171/169/4 172/172/4 170/176/4
f 173/173/5 169/175/5 170/176/5 174/174/5
f 176/171/6 174/174/6 170/176/6 172/172/6
f 179/177/1 183/178/1 184/179/1 180/180/1
f 183/178/2 181/181/2 182/182/2 184/179/2
f 179/177/3 177/183/3 181/181/3 183/178/3
f 177/183/4 179/177/4 180/180/4 178/184/4
f 181/181/5 177/183/5 178/184/5 182/182/5
f 184/179/6 182/182/6 178/184/6 180/180/6
f 187/185/1 191/186/1 192/187/1 188/188/1
f 191/186/2 189/189/2 190/190/2 192/187/2
f 187/185/3 185/191/3 189/189/3 191/186/3
f 185/191/4 187/185/4 188/188/4 186/192/4
f 189/189/5 185/191/5 186/192/5 190/190/5
f 192/187/6 190/190/6 186/192/6 188/188/6
f 195/193/1 199/194/1 200/195/1 196/196/1
f 199/194/2 197/197/2 198/198/2 200/195/2
f 195/193/3 193/199/3 197/197/3 199/194/3
f 193/199/4 195/193/4 196/196/4 194/200/4
f 197/197/5 193/199/5 194/200/5 198/198/5
f 200/195/6 198/198/6 194/200/6 196/196/6
f 203/201/1 207/202/1 208/203/1 204/204/1
f 207/202/2 205/205/2 206/206/2 208/203/2
f 203/201/3 201/207/3 205/205/3 207/202/3
f 201/207/4 203/201/4 204/204/4 202/208/4
f 205/205/5 201/207/5 202/208/5 206/206/5
f 208/203/6 206/206/6 202/208/6 204/204/6
f 211/209/1 215/210/1 216/211/1 212/212/1
f 215/210/2 213/213/2 214/214/2 216/211/2
f 211/209/3 209/215/3 213/213/3 215/210/3
f 209/215/4 211/209/4 212/212/4 210/216/4
f 213/213/5 209/215/5 210/216/5 214/214/5
f 216/211/6 214/214/6 210/216/6 212/212/6
