# Blender v2.78 (sub 0) OBJ File: 'pollution_bottle.blend'
# www.blender.org
mtllib pollution_bottle.mtl
o Plane
v 0.074452 -0.393291 -0.092308
v -0.085472 -0.393291 -0.092308
v 0.074452 -0.236399 -0.092308
v -0.085472 -0.236399 -0.092308
vt 0.0001 0.0001
vt 0.9999 0.0001
vt 0.9999 0.9999
vt 0.0001 0.9999
vn 0.0000 -0.0000 -1.0000
usemtl None
s off
f 1/1/1 2/2/1 4/3/1 3/4/1
o Cube
v 0.125173 -0.509781 0.105739
v 0.125173 -0.119909 0.105739
v -0.136193 -0.509781 0.105739
v -0.136193 -0.119909 0.105739
v 0.125173 -0.509781 -0.088184
v 0.125173 -0.119909 -0.088184
v -0.136193 -0.509781 -0.088184
v -0.136193 -0.119909 -0.088184
vn 0.0000 0.0000 1.0000
vn -1.0000 0.0000 0.0000
vn -0.0000 0.0000 -1.0000
vn 1.0000 0.0000 0.0000
vn 0.0000 -1.0000 0.0000
vn 0.0000 1.0000 0.0000
usemtl None_NONE
s off
f 5//2 6//2 8//2 7//2
f 7//3 8//3 12//3 11//3
f 11//4 12//4 10//4 9//4
f 9//5 10//5 6//5 5//5
f 7//6 11//6 9//6 5//6
f 12//7 8//7 6//7 10//7
o Cube.001
v 0.050082 -0.119920 0.053364
v 0.050082 -0.016969 0.053364
v -0.061102 -0.119920 0.053364
v -0.061102 -0.016969 0.053364
v 0.050082 -0.119920 -0.035810
v 0.050082 -0.016969 -0.035810
v -0.061102 -0.119920 -0.035810
v -0.061102 -0.016969 -0.035810
vn 0.0000 0.0000 1.0000
vn -1.0000 0.0000 0.0000
vn -0.0000 0.0000 -1.0000
vn 1.0000 0.0000 -0.0000
vn 0.0000 -1.0000 -0.0000
vn 0.0000 1.0000 -0.0000
usemtl None_NONE
s off
f 13//8 14//8 16//8 15//8
f 15//9 16//9 20//9 19//9
f 19//10 20//10 18//10 17//10
f 17//11 18//11 14//11 13//11
f 15//12 19//12 17//12 13//12
f 20//13 16//13 14//13 18//13
o Cube.002
v 0.063056 -0.017240 0.063533
v 0.063056 0.018668 0.063533
v -0.074076 -0.017240 0.063533
v -0.074076 0.018668 0.063533
v 0.063056 -0.017240 -0.045978
v 0.063056 0.018668 -0.045978
v -0.074076 -0.017240 -0.045978
v -0.074076 0.018668 -0.045978
vn 0.0000 0.0000 1.0000
vn -1.0000 0.0000 0.0000
vn -0.0000 0.0000 -1.0000
vn 1.0000 0.0000 0.0000
vn 0.0000 -1.0000 0.0000
vn 0.0000 1.0000 0.0000
usemtl None_NONE
s off
f 21//14 22//14 24//14 23//14
f 23//15 24//15 28//15 27//15
f 27//16 28//16 26//16 25//16
f 25//17 26//17 22//17 21//17
f 23//18 27//18 25//18 21//18
f 28//19 24//19 22//19 26//19
