# Blender v2.79 (sub 7) OBJ File: 'armor_chestplate.blend'
# www.blender.org
mtllib armor_chestplate.mtl
o Cube.004_Cube.007
v -0.587973 1.201863 0.276399
v -1.181973 1.201863 0.276400
v -1.181974 1.201863 -0.263600
v -0.587973 1.201863 -0.263600
v -0.587973 -0.958137 -0.263601
v 1.195816 1.201863 0.276398
v 0.601816 1.201863 0.276399
v 0.601816 1.201863 -0.263601
v 1.195816 1.201863 -0.263602
v 0.595245 -0.947337 0.273698
v 0.595245 1.191063 0.273699
v -0.580875 1.191063 0.273699
v -0.580875 -0.947337 0.273699
v -0.580876 1.191063 -0.260900
v -0.580876 -0.947337 -0.260901
v 0.595244 1.191063 -0.260901
v 0.595244 -0.947337 -0.260902
v 1.195816 0.482699 0.276398
v 1.195816 0.481205 -0.263602
v 0.601816 0.481591 0.276398
v 0.601816 0.481061 -0.263601
v 0.717051 0.550493 0.276398
v -1.181973 0.480905 0.276400
v -0.587973 0.481857 -0.263601
v -1.181974 0.481644 -0.263600
v -0.587973 0.483639 0.276399
v -0.650098 0.571882 -0.263601
vt 0.687500 0.374382
vt 0.750000 0.374382
vt 0.750000 0.499382
vt 0.687500 0.499382
vt 0.750000 0.374382
vt 0.750000 0.499382
vt 0.687500 0.499382
vt 0.687500 0.374382
vt 0.625000 0.000000
vt 0.625000 0.375000
vt 0.500000 0.375000
vt 0.500000 0.000000
vt 0.624914 0.000000
vt 0.624914 0.375000
vt 0.562586 0.375000
vt 0.562586 0.000000
vt 0.437500 -0.000000
vt 0.437500 0.375000
vt 0.312500 0.375000
vt 0.312500 -0.000000
vt 0.250048 0.375000
vt 0.250048 0.000000
vt 0.437500 0.500000
vt 0.437500 0.375000
vt 0.562500 0.375000
vt 0.562500 0.500000
vt 0.437500 0.500000
vt 0.312500 0.500000
vt 0.625000 0.250145
vt 0.687500 0.249886
vt 0.687500 0.375000
vt 0.625000 0.375000
vt 0.812500 0.249953
vt 0.875000 0.250145
vt 0.824625 0.261915
vt 0.875000 0.375000
vt 0.812500 0.375000
vt 0.750012 0.249861
vt 0.750012 0.375000
vt 0.812500 0.249834
vt 0.875000 0.250308
vt 0.875000 0.375000
vt 0.812500 0.375000
vt 0.625000 0.249962
vt 0.687500 0.249834
vt 0.687500 0.375000
vt 0.625000 0.375000
vt 0.687500 0.249999
vt 0.750000 0.249962
vt 0.694037 0.265628
vt 0.750000 0.375000
vt 0.687500 0.375000
vn 0.0000 1.0000 0.0000
vn 0.0000 -0.0000 1.0000
vn -1.0000 0.0000 0.0000
vn -0.0000 0.0000 -1.0000
vn 1.0000 0.0000 -0.0000
vn -0.0000 -1.0000 -0.0000
usemtl Material.002
s 1
f 3/1/1 2/2/1 1/3/1 4/4/1
f 8/5/1 7/6/1 6/7/1 9/8/1
f 10/9/2 11/10/2 12/11/2 13/12/2
f 13/13/3 12/14/3 14/15/3 15/16/3
f 15/17/4 14/18/4 16/19/4 17/20/4
f 17/20/5 16/19/5 11/21/5 10/22/5
f 13/23/6 15/24/6 17/25/6 10/26/6
f 14/18/1 12/27/1 11/28/1 16/19/1
f 18/29/5 19/30/5 9/31/5 6/32/5
f 20/33/2 18/34/2 22/35/2
f 22/35/2 18/34/2 6/36/2 7/37/2 20/33/2
f 19/30/4 21/38/4 8/39/4 9/31/4
f 23/40/2 26/41/2 1/42/2 2/43/2
f 25/44/3 23/45/3 2/46/3 3/47/3
f 24/48/4 25/49/4 27/50/4
f 27/50/4 25/49/4 3/51/4 4/52/4 24/48/4
