# Blender v2.79 (sub 0) OBJ File: 'tempsurvive_head.blend'
# www.blender.org
mtllib tempsurvive_head.mtl
o Cube.004_Cube.007
v 0.500988 -0.805127 0.050333
v 0.500988 0.094873 0.050333
v -0.489012 0.094873 0.050333
v -0.489012 -0.805127 0.050333
v -0.489013 0.094873 -0.039667
v -0.489013 -0.805127 -0.039667
v 0.500987 0.094873 -0.039667
v 0.500987 -0.805127 -0.039667
v 0.525738 -0.806234 0.052583
v 0.525738 0.138766 0.052583
v -0.513762 0.138766 0.052583
v -0.513762 -0.806234 0.052583
v -0.513763 0.138766 -0.041917
v -0.513763 -0.806234 -0.041917
v 0.525737 0.138766 -0.041917
v 0.525737 -0.806234 -0.041917
vt 0.500000 0.500000
vt 0.500000 0.750000
vt 0.375000 0.750000
vt 0.375000 0.500000
vt 0.250000 0.750000
vt 0.250000 0.500000
vt 0.125000 0.750000
vt 0.125000 0.500000
vt 0.000000 0.750000
vt 0.000000 0.500000
vt 0.250000 1.000000
vt 0.250000 0.750000
vt 0.375000 0.750000
vt 0.375000 1.000000
vt 0.125000 0.750000
vt 0.250000 0.750000
vt 0.250000 1.000000
vt 0.125000 1.000000
vt 1.000000 0.500000
vt 1.000000 0.750000
vt 0.875000 0.750000
vt 0.875000 0.500000
vt 0.750000 0.750000
vt 0.750000 0.500000
vt 0.625000 0.750000
vt 0.625000 0.500000
vt 0.500000 0.750000
vt 0.500000 0.500000
vt 0.750000 1.000000
vt 0.750000 0.750000
vt 0.875000 0.750000
vt 0.875000 1.000000
vt 0.625000 0.750000
vt 0.750000 0.750000
vt 0.750000 1.000000
vt 0.625000 1.000000
vn 0.0000 -0.0000 1.0000
vn -1.0000 0.0000 0.0000
vn -0.0000 0.0000 -1.0000
vn 1.0000 0.0000 -0.0000
vn -0.0000 -1.0000 -0.0000
vn 0.0000 1.0000 0.0000
usemtl Material.002
s 1
f 1/1/1 2/2/1 3/3/1 4/4/1
f 4/4/2 3/3/2 5/5/2 6/6/2
f 6/6/3 5/5/3 7/7/3 8/8/3
f 8/8/4 7/7/4 2/9/4 1/10/4
f 4/11/5 6/12/5 8/13/5 1/14/5
f 5/15/6 3/16/6 2/17/6 7/18/6
f 9/19/1 10/20/1 11/21/1 12/22/1
f 12/22/2 11/21/2 13/23/2 14/24/2
f 14/24/3 13/23/3 15/25/3 16/26/3
f 16/26/4 15/25/4 10/27/4 9/28/4
f 12/29/5 14/30/5 16/31/5 9/32/5
f 13/33/6 11/34/6 10/35/6 15/36/6
