# Blender v2.81 (sub 16) OBJ File: 'plants_cabbage.blend'
# www.blender.org
mtllib plants_cabbage.mtl
o Plane.006_Plane.009
v 0.200000 -0.000067 0.250000
v 0.200000 -0.000067 -0.250000
v 0.200000 0.124933 0.250000
v 0.200000 0.124933 -0.250000
v -0.250000 -0.500067 0.250000
v -0.250000 -0.000067 0.250000
v -0.250000 -0.500067 -0.250000
v -0.250000 -0.000067 -0.250000
v 0.250000 -0.500067 0.250000
v 0.250000 -0.000067 0.250000
v 0.250000 -0.500067 -0.250000
v 0.250000 -0.000067 -0.250000
v -0.500000 -0.500067 0.200000
v 0.500000 -0.500067 0.200000
v -0.500000 -0.000067 0.200000
v 0.500000 -0.000067 0.200000
v -0.500000 -0.500067 -0.200000
v 0.500000 -0.500067 -0.200000
v -0.500000 -0.000067 -0.200000
v 0.500000 -0.000067 -0.200000
v 0.200000 -0.500067 0.500000
v 0.200000 -0.500067 -0.500000
v 0.200000 -0.000067 0.500000
v 0.200000 -0.000067 -0.500000
v -0.200000 -0.500067 0.500000
v -0.200000 -0.500067 -0.500000
v -0.200000 -0.000067 0.500000
v -0.200000 -0.000067 -0.500000
v -0.250000 -0.000067 0.200000
v 0.250000 -0.000067 0.200000
v -0.250000 0.124933 0.200000
v 0.250000 0.124933 0.200000
v -0.250000 -0.000067 -0.200000
v 0.250000 -0.000067 -0.200000
v -0.250000 0.124933 -0.200000
v 0.250000 0.124933 -0.200000
v -0.200000 -0.000067 0.250000
v -0.200000 -0.000067 -0.250000
v -0.200000 0.124933 0.250000
v -0.200000 0.124933 -0.250000
vt 0.500000 0.000000
vt 1.000000 0.000000
vt 1.000000 0.125000
vt 0.500000 0.125000
vt 0.000000 0.500000
vt 0.500000 0.500000
vt 0.500000 0.000000
vt 0.000000 0.000000
vt 0.500000 0.500000
vt 0.000000 0.500000
vt 0.500000 0.000000
vt 0.000000 0.000000
vt 0.500000 0.500000
vt 0.500000 0.000000
vt 0.000000 0.000000
vt 0.000000 0.500000
vt 0.000000 0.500000
vt 1.000000 0.500000
vt 1.000000 1.000000
vt 0.000000 1.000000
vt 0.000000 0.500000
vt 1.000000 0.500000
vt 1.000000 1.000000
vt 0.000000 1.000000
vt 0.000000 0.500000
vt 1.000000 0.500000
vt 1.000000 1.000000
vt 0.000000 1.000000
vt 0.000000 0.500000
vt 1.000000 0.500000
vt 1.000000 1.000000
vt 0.000000 1.000000
vt 0.500000 0.000000
vt 1.000000 0.000000
vt 1.000000 0.125000
vt 0.500000 0.125000
vt 0.500000 0.000000
vt 1.000000 0.000000
vt 1.000000 0.125000
vt 0.500000 0.125000
vt 0.500000 0.000000
vt 1.000000 0.000000
vt 1.000000 0.125000
vt 0.500000 0.125000
vn 1.0000 0.0000 -0.0000
vn -1.0000 -0.0000 0.0000
vn 0.0000 0.0000 -1.0000
vn 0.0000 0.0000 1.0000
vn 0.0000 -1.0000 0.0000
vn 0.0000 1.0000 0.0000
usemtl Material.001
s off
f 1/1/1 2/2/1 4/3/1 3/4/1
f 5/5/2 6/6/2 8/7/2 7/8/2
f 7/8/3 8/7/3 12/9/3 11/10/3
f 11/10/1 12/9/1 10/11/1 9/12/1
f 9/12/4 10/11/4 6/6/4 5/5/4
f 7/13/5 11/10/5 9/12/5 5/14/5
f 12/15/6 8/7/6 6/6/6 10/16/6
f 13/17/4 14/18/4 16/19/4 15/20/4
f 17/21/4 18/22/4 20/23/4 19/24/4
f 21/25/1 22/26/1 24/27/1 23/28/1
f 25/29/1 26/30/1 28/31/1 27/32/1
f 29/33/4 30/34/4 32/35/4 31/36/4
f 33/37/4 34/38/4 36/39/4 35/40/4
f 37/41/1 38/42/1 40/43/1 39/44/1
