v -0.450000 0.408954 -0.317255
v -0.450000 -0.491046 -0.317255
v -0.320591 0.279544 -0.450000
v -0.320591 -0.361637 -0.450000
v 0.450000 0.408954 -0.317256
v 0.450000 -0.491046 -0.317256
v 0.320590 0.279544 -0.450000
v 0.320590 -0.361637 -0.450000
v -0.376005 -0.491046 0.199124
v 0.376005 -0.491046 0.199124
v -0.376005 0.277855 0.199124
v 0.376005 0.277855 0.199124
v -0.376005 -0.491046 0.199124
v 0.376005 -0.491046 0.199124
v -0.376005 0.277855 0.199124
v 0.376005 0.277855 0.199124
v -0.376005 -0.278627 0.199124
v 0.376005 -0.278627 0.199124
v -0.237856 0.184640 0.425204
v -0.237856 -0.185411 0.425204
v 0.237856 0.184640 0.425204
v 0.237856 -0.185411 0.425204
v 0.450000 -0.491046 -0.450000
v -0.450000 0.408954 -0.450000
v 0.450000 0.408954 -0.450000
v -0.450000 -0.491046 -0.450000
v 0.139404 -0.180450 -0.465259
v 0.139404 0.098358 -0.465259
v -0.139404 0.098358 -0.465258
v -0.139404 -0.180450 -0.465258
v 0.307467 -0.348513 -0.425446
v 0.307467 0.266421 -0.425446
v -0.307467 0.266421 -0.425446
v -0.307467 -0.348513 -0.425446
vt 0.601562 0.718750
vt 0.601562 0.367188
vt 0.648438 0.367188
vt 0.648438 0.718750
vt 0.695312 0.312500
vt 0.445312 0.312500
vt 0.453125 0.304688
vt 0.687500 0.304688
vt 0.906250 0.367188
vt 0.906250 0.718750
vt 0.851562 0.718750
vt 0.851562 0.367188
vt 0.945312 0.351562
vt 0.945312 0.000000
vt 1.000000 0.000000
vt 1.000000 0.351562
vt 0.054688 0.414062
vt 0.054688 0.765625
vt 0.000000 0.765625
vt 0.000000 0.414062
vt 0.257812 0.414062
vt 0.257812 0.718750
vt 0.648438 0.664062
vt 0.648438 0.367188
vt 0.750000 0.320312
vt 0.750000 0.031250
vt 0.390625 0.687500
vt 0.390625 0.398438
vt 0.046875 0.085938
vt 0.046875 0.000000
vt 0.343750 0.000000
vt 0.343750 0.085938
vt 0.343750 0.414062
vt 0.046875 0.414062
vt 0.101562 0.320312
vt 0.289062 0.320312
vt 0.101562 0.179688
vt 0.289062 0.179688
vt 0.390625 0.140625
vt 0.390625 0.359375
vt 0.000000 0.359375
vt 0.000000 0.140625
vt 0.445312 0.054688
vt 0.390625 0.367188
vt 0.390625 0.007812
vt 0.695312 0.054688
vt 0.750000 0.007812
vt 0.750000 0.367188
vt 0.453125 0.062500
vt 0.687500 0.062500
vt 0.726697 0.273303
vt 0.726697 0.726697
vt 0.273303 0.726697
vt 0.273303 0.273303
vt 0.000000 1.000000
vt 0.000000 -0.000000
vt 1.000000 0.000000
vt 1.000000 1.000000
vn 0.0000 1.0000 0.0000
vn -0.0000 -0.8819 -0.4714
vn 1.0000 0.0000 -0.0000
vn 0.0000 -1.0000 0.0000
vn -1.0000 0.0000 0.0000
vn -0.9899 0.0000 0.1418
vn 0.9899 0.0000 0.1418
vn 0.0000 0.9693 0.2461
vn 0.0000 0.0000 1.0000
vn 0.0000 0.9245 0.3812
vn 0.8533 0.0000 0.5214
vn -0.8533 0.0000 0.5214
vn 0.0000 -0.9245 0.3812
vn -0.0000 0.0000 -1.0000
vn -0.8819 0.0000 -0.4714
vn -0.0000 0.8819 -0.4714
vn 0.8819 0.0000 -0.4714
vn 0.2305 0.0000 -0.9731
vn -0.2305 0.0000 -0.9731
vn -0.0000 0.2305 -0.9731
vn -0.0000 -0.2305 -0.9731
g TV_TV_TV
s off
f 1/1/1 5/2/1 25/3/1 24/4/1
f 3/5/2 7/6/2 32/7/2 33/8/2
f 23/9/3 25/10/3 5/11/3 6/12/3
f 6/13/4 2/14/4 26/15/4 23/16/4
f 2/17/5 1/18/5 24/19/5 26/20/5
f 1/18/6 2/17/6 9/21/6 11/22/6
f 6/12/7 5/11/7 12/23/7 10/24/7
f 2/14/4 6/13/4 10/25/4 9/26/4
f 5/2/8 1/1/8 11/27/8 12/28/8
f 17/29/9 13/30/9 14/31/9 18/32/9
f 16/33/10 15/34/10 19/35/10 21/36/10
f 19/35/9 20/37/9 22/38/9 21/36/9
f 18/39/11 16/40/11 21/36/11 22/38/11
f 15/41/12 17/42/12 20/37/12 19/35/12
f 17/29/13 18/32/13 22/38/13 20/37/13
f 8/43/14 7/6/14 25/44/14 23/45/14
f 3/5/14 4/46/14 26/47/14 24/48/14
f 7/6/14 3/5/14 24/48/14 25/44/14
f 4/46/14 8/43/14 23/45/14 26/47/14
f 7/6/15 8/43/15 31/49/15 32/7/15
f 8/43/16 4/46/16 34/50/16 31/49/16
f 4/46/17 3/5/17 33/8/17 34/50/17
g TV_TV_Screen
f 30/51/14 29/52/14 28/53/14 27/54/14
f 27/54/18 28/53/18 32/55/18 31/56/18
f 29/52/19 30/51/19 34/57/19 33/58/19
f 28/53/20 29/52/20 33/58/20 32/55/20
f 30/51/21 27/54/21 31/56/21 34/57/21
